<svg width="140" height="124" viewBox="0 0 140 124" fill="none" xmlns="http://www.w3.org/2000/svg">
<path d="M23.7991 62.3769C23.6909 62.2695 23.5362 62.1621 23.4743 62.0393C22.9638 60.8273 22.2367 60.5205 20.9063 60.9501C21.1229 62.1927 21.8499 62.7144 23.0566 62.4996C23.3041 62.4536 23.5516 62.4075 23.7991 62.3769C23.7218 62.6377 23.6445 62.8985 23.5671 63.19C24.0312 62.8524 24.4644 62.4842 24.9285 62.1928C25.408 61.9013 25.9185 61.6711 26.5992 61.3183C26.197 62.1621 25.7948 62.7604 25.6555 63.4048C25.5008 64.1412 26.0268 64.7088 26.5528 65.2151C27.7904 63.6809 27.8059 63.4047 26.7694 61.8245C26.5064 61.4103 26.7075 61.2569 27.0324 61.0575C28.007 60.4438 28.9661 59.7994 29.9407 59.1858C30.281 58.971 30.6678 58.8022 31.0545 58.6948C32.4932 58.3113 33.9629 58.2346 35.4016 58.5874C36.4999 58.8482 37.5674 59.2625 38.8359 59.6614C37.0104 60.3671 35.448 60.9654 33.8855 61.5637C33.6535 60.137 33.0192 59.3545 31.2711 59.8761C31.4722 61.1035 31.9518 61.5024 33.1584 61.4717C33.406 61.4717 33.6535 61.5177 33.901 61.5484C33.2048 62.0854 32.4932 62.6223 31.7043 63.236C32.091 63.0826 32.3695 62.9905 32.6634 62.8831C32.4623 63.5889 32.1529 64.1872 32.1684 64.7702C32.1838 65.4452 32.6479 65.9668 33.3441 66.2583C34.2259 64.9236 34.0866 63.7883 32.6479 62.8524C33.8855 62.024 35.0612 61.441 36.5154 61.1495C36.1287 61.9626 35.6646 62.607 35.5253 63.328C35.3552 64.1718 35.8502 64.8622 36.5309 65.3992C37.753 64.1412 38.016 62.7604 36.8248 61.6711C36.4845 61.3489 36.5928 61.0728 37.0414 60.9501C37.6602 60.7966 38.3099 60.7046 38.9132 60.5052C39.7331 60.2443 40.4912 60.2597 41.3265 60.5052C42.2238 60.766 43.1829 60.9194 44.1266 60.9807C46.1067 61.1188 47.9167 60.4438 49.7112 59.692C51.4129 58.971 53.161 58.2959 55.0483 58.2653C58.2042 58.2192 60.8805 59.4312 63.1236 61.5331C63.7579 62.1314 64.222 63.0519 64.4231 63.8957C64.6706 64.9696 64.6861 66.1356 64.5778 67.2402C64.3303 70.0631 64.8872 72.8246 65.1347 75.6015C65.3049 77.4578 65.4132 79.3909 65.1038 81.2166C64.3767 85.589 61.8706 88.9181 58.328 91.5109C57.4926 92.1246 56.6263 92.7076 55.76 93.3366C56.9357 93.9349 57.4926 94.073 58.6219 93.7815C59.4573 93.5667 60.2772 93.2445 61.0816 92.8917C62.5358 92.2626 63.2164 92.4774 63.9126 93.8889C64.3612 94.794 65.1038 95.0855 66.0165 94.6253C66.4342 94.4258 66.8055 94.1343 67.1767 93.8735C68.3525 93.0144 69.6674 92.7229 71.0442 93.1525C72.452 93.5974 73.7979 94.2111 75.1283 94.7327C74.8808 94.073 74.494 93.2905 74.8498 92.3087C76.536 93.4746 78.3924 93.4133 80.2488 93.4593C80.2179 93.3366 80.2179 93.2906 80.1869 93.2599C79.8466 92.9377 79.5217 92.6155 79.1814 92.3087C74.8498 88.4579 72.5912 83.7019 72.8851 77.8874C72.9934 75.6168 73.2409 73.3616 73.3802 71.1063C73.4885 69.4341 73.4575 67.7465 73.6432 66.0742C73.9216 63.5275 74.989 61.3183 77.3095 60.0142C79.7538 58.6335 82.5229 58.3726 85.292 58.342C87.2103 58.3266 88.9429 59.1397 90.6755 59.8301C93.3209 60.8734 96.0126 61.487 98.7818 60.4898C100.514 59.8761 101.953 60.8427 103.546 61.0575C103.16 61.8706 102.68 62.5456 102.556 63.2667C102.417 64.0951 103.051 64.7395 103.608 65.3685C104.305 64.7855 104.815 64.0951 104.645 63.282C104.49 62.5763 103.995 61.9319 103.655 61.2569C103.686 61.1955 103.732 61.1342 103.763 61.0881C105.016 61.5024 106.3 61.8552 107.321 62.8064C107.259 62.9138 107.213 63.0365 107.135 63.1286C105.975 64.2332 105.898 64.9082 106.826 66.2123C108.064 65.4605 108.28 64.5861 107.584 63.4048C107.476 63.2053 107.398 62.9905 107.321 62.7757C107.584 62.8524 107.832 62.9445 108.095 63.0212C107.708 62.6377 107.244 62.3615 106.842 62.024C106.594 61.8092 106.424 61.5024 106.223 61.2416C107.677 61.8245 108.76 61.2262 108.853 59.7841C107.445 59.5386 106.826 59.7994 106.424 60.8734C106.377 61.0114 106.3 61.1188 106.223 61.2569C106.084 61.3183 105.929 61.441 105.836 61.4103C104.459 60.9194 103.098 60.4131 101.736 59.8915C101.659 59.8608 101.597 59.7841 101.474 59.6614C103.639 58.6641 105.79 58.0505 108.095 58.4647C108.806 58.5874 109.549 58.8176 110.183 59.1551C111.189 59.7074 112.117 60.3978 113.107 61.0114C113.54 61.2876 113.648 61.5637 113.277 61.9166C112.287 62.8371 112.457 64.1412 113.648 65.123C115.01 63.911 114.638 62.699 113.463 61.487C113.571 61.4257 113.664 61.3643 113.772 61.3029C114.762 61.9319 115.737 62.5456 116.665 63.1286C115.737 61.6251 113.788 61.1648 112.395 59.6767C112.859 59.7381 113.107 59.7687 113.339 59.8148C114.484 60.0909 115.69 60.2137 116.742 59.7074C117.903 59.1397 118.846 59.2778 119.821 59.9989C120.177 60.2597 120.579 60.4438 120.966 60.6586C120.888 60.7813 120.811 60.9194 120.718 61.0268C119.589 62.1774 119.573 62.9905 120.672 64.2639C121.878 63.5121 122.095 62.4229 121.306 61.3029C121.167 61.1035 121.074 60.858 120.966 60.6432C121.29 60.5972 121.615 60.5665 121.94 60.5052C122.574 60.4131 123.193 60.3057 123.889 60.1983C123.363 60.1523 122.93 60.1216 122.497 60.0909C122.667 59.9375 122.822 59.7227 123.023 59.646C124.075 59.1858 124.353 58.4954 123.889 57.3754C122.544 57.7436 122.141 58.3726 122.42 59.646C122.451 59.7994 122.466 59.9529 122.497 60.1063C122.281 60.183 122.064 60.3364 121.863 60.3057C120.734 60.1216 119.759 59.6 118.692 58.8482C119.774 58.0505 120.718 57.268 121.739 56.6083C122.822 55.918 124.06 55.7492 125.344 56.1021C125.344 56.0407 125.344 55.9793 125.344 55.9026C124.601 55.8106 123.858 55.7185 123.116 55.6265C123.085 55.5498 123.054 55.473 123.023 55.3963C123.317 55.2276 123.58 55.0281 123.889 54.9054C125.065 54.4298 125.467 53.2792 124.818 52.1899C123.24 52.7729 123.023 53.0797 123.054 54.6292C123.069 55.2889 122.776 55.7032 122.157 55.9947C121.445 56.3322 120.78 56.7618 120.115 57.1913C119.403 57.6516 118.753 58.2192 118.026 58.6181C117.5 58.9096 116.866 59.0323 116.278 59.2318C116.216 59.1551 116.154 59.0784 116.077 59.0017C116.201 58.7255 116.294 58.434 116.464 58.1885C117.253 57.0533 116.99 55.9486 115.598 55.1662C115.412 55.9026 115.025 56.6237 115.102 57.2834C115.18 57.9277 115.737 58.5107 116.124 59.2011C114.607 59.3545 113.308 59.2011 111.978 58.4494C112.627 57.5749 113.2 56.7771 113.803 55.9947C114.499 55.1048 115.412 54.5065 116.495 54.169C117.129 53.9696 117.454 54.1537 117.609 54.798C117.918 56.056 118.552 56.4089 119.898 56.1327C119.836 54.6906 118.924 54.169 117.562 54.0616C117.887 53.8928 118.15 53.8468 118.413 53.7701C119.094 53.54 119.79 53.2945 120.455 53.0337C120.687 52.9417 120.857 52.6655 121.105 52.5735C122.389 52.1439 122.776 51.3768 122.358 50.0421C120.842 50.4103 120.532 50.8245 120.455 52.3433C120.44 52.6502 120.208 53.1718 120.006 53.2025C118.862 53.4173 117.701 53.5246 116.541 53.6627C116.882 52.911 117.408 52.4047 117.701 51.791C118.057 51.0546 117.64 50.3949 117.16 49.7966C115.814 50.8398 115.659 51.3308 116.232 52.8496C116.433 53.3559 116.309 53.6474 115.768 53.9235C114.87 54.3838 113.989 54.9361 113.231 55.6111C112.55 56.2095 112.039 57.0072 111.498 57.759C111.25 58.0965 111.018 58.1579 110.601 58.0351C109.765 57.7743 108.915 57.5902 108.064 57.4061C107.553 57.2987 107.043 57.2527 106.439 57.1606C106.826 56.6697 107.135 56.3015 107.398 55.9026C107.955 55.1202 108.002 55.1048 108.775 55.6265C109.936 56.3936 111.049 56.1174 111.792 54.7213C111.096 54.5525 110.431 54.1997 109.796 54.261C109.193 54.3224 108.652 54.8134 108.079 55.1048C108.033 55.0435 107.986 54.9821 107.94 54.9361C108.373 54.2457 108.806 53.5553 109.224 52.8649C109.595 52.2513 110.044 52.282 110.462 52.7422C111.421 53.8008 112.968 53.7548 114.112 52.4354C112.937 51.162 111.993 51.0853 110.57 52.1132C110.384 52.2513 110.137 52.2666 109.905 52.3433C109.858 52.2513 109.812 52.1746 109.765 52.0825C110.369 51.5302 110.987 50.9932 111.56 50.4716C111.312 50.533 111.018 50.6097 110.74 50.6864C110.864 50.4409 110.957 50.1801 111.127 49.9653C111.916 48.9528 111.746 47.9709 110.632 47.2038C109.518 48.3391 109.502 49.1215 110.554 50.2722C110.647 50.3796 110.694 50.533 110.755 50.6711C109.75 51.8217 108.744 52.9723 107.754 54.123C107.368 54.5679 107.043 55.0588 106.625 55.473C105.604 56.5009 104.475 57.2834 102.99 57.6209C100.886 58.0812 98.8436 58.7715 96.7552 59.2932C96.2911 59.4159 95.7651 59.3085 95.2546 59.3085C95.2391 59.2318 95.2237 59.1397 95.2082 59.063C95.7342 58.7562 96.2602 58.4647 96.7552 58.1272C97.8226 57.3908 98.921 56.6544 99.911 55.8412C100.452 55.3963 100.793 55.381 101.257 55.8719C102.324 57.0072 103.732 56.9612 104.861 55.8106C103.964 54.5219 102.479 54.215 101.35 55.2122C101.211 55.335 100.932 55.335 100.731 55.3963C100.685 55.3196 100.638 55.2429 100.576 55.1816C101.551 54.0769 102.525 52.9723 103.531 51.9138C103.608 51.8217 104.088 51.9291 104.196 52.0672C105.264 53.4479 105.79 53.586 107.414 52.8496C106.764 51.116 105.496 51.116 103.964 51.7757C103.964 51.699 103.98 51.6376 103.98 51.5609C104.119 51.3921 104.258 51.2234 104.397 51.0393C104.366 51.0086 104.32 50.9779 104.289 50.9472C103.593 51.4842 102.897 52.0211 102.201 52.5581C102.139 52.5428 102.061 52.5428 101.999 52.5274C102.773 51.3154 103.051 50.1801 101.644 49.321C100.886 50.2108 100.762 50.9932 101.241 51.6836C101.489 52.0518 101.999 52.4507 101.953 52.7576C101.891 53.1564 101.381 53.494 101.056 53.8622C100.948 53.9849 100.855 54.1076 100.746 54.1997C99.7409 54.9821 98.7353 55.7645 97.7298 56.5316C97.9 56.1174 97.9928 55.6725 98.2403 55.3043C98.89 54.3224 98.4105 52.6195 97.1419 52.282C96.1055 53.8928 96.1673 54.5372 97.4823 55.918C97.6215 56.0714 97.6524 56.3168 97.7453 56.5163C97.0491 56.8845 96.3684 57.268 95.6723 57.6362C95.1773 57.9124 94.6203 58.1118 94.2181 58.4647C93.754 58.8636 93.3673 58.9403 92.8413 58.6335C92.4855 58.4187 92.0987 58.2653 91.7584 58.0351C91.5882 57.9277 91.4181 57.6823 91.4181 57.4982C91.2789 54.6139 92.2689 51.5302 95.3938 49.858C97.5906 48.6766 99.9729 48.4312 102.402 48.3545C105.217 48.2624 107.909 47.7254 110.338 46.1913C110.585 46.0378 111.065 46.0532 111.374 46.1606C112.333 46.5288 113.246 47.0044 114.205 47.3726C114.778 47.6027 114.855 47.8328 114.484 48.3238C113.71 49.3363 113.834 50.0727 114.901 50.8245C115.922 49.7812 115.721 48.7533 114.84 47.8789C116.386 47.7101 117.887 47.5413 119.388 47.3879C119.295 47.6641 119.248 47.9709 119.109 48.2164C118.537 49.2443 118.753 50.0267 119.805 50.625C120.625 49.4897 120.579 48.9528 119.635 47.9095C119.511 47.7715 119.465 47.5567 119.388 47.3726C120.672 46.6822 121.94 46.7743 123.224 47.3726C123.936 47.7101 124.013 47.9863 123.626 48.692C123.054 49.7506 123.271 50.487 124.431 51.1313C125.452 48.692 123.936 47.5874 122.048 46.6515C122.884 46.4521 123.704 46.4061 124.353 46.0378C125.112 45.6236 125.251 44.7645 125.266 43.9207C123.1 44.0741 123.116 44.0741 122.203 46.0225C122.079 46.2987 121.801 46.6362 121.538 46.6975C120.192 47.0044 118.831 47.2345 117.454 47.4493C117.191 47.4953 116.882 47.3266 116.603 47.2499C116.773 47.0197 116.897 46.7589 117.114 46.5748C118.212 45.6236 118.243 44.2122 117.191 43.2303C115.381 44.2275 115.737 45.731 116.479 47.4186C114.546 47.0504 113.045 46.36 111.575 45.3475C111.962 45.0253 112.271 44.7645 112.581 44.5037C114.638 42.8007 116.943 41.7115 119.666 41.7421C119.929 41.7421 120.208 41.9263 120.471 42.0336C120.331 42.2484 120.208 42.5092 120.022 42.6933C119.109 43.5832 119.171 44.8565 120.347 45.7924C120.672 45.148 121.198 44.5344 121.244 43.9053C121.29 43.2763 120.857 42.6166 120.594 41.8956C120.981 41.8956 121.337 41.9109 121.693 41.8956C122.621 41.8342 123.549 41.8189 124.446 41.6654C125.421 41.4967 125.436 41.4507 125.622 42.4479C125.885 43.9514 127.308 44.7491 128.731 44.0281C128.36 43.3991 128.128 42.6166 127.602 42.2024C127.061 41.7728 126.225 41.7115 125.529 41.4967C126.179 40.7603 126.767 40.0546 127.386 39.3795C128.159 38.5357 128.159 37.4004 127.355 36.4186C125.916 37.0629 125.452 38.0755 125.993 39.3488C126.519 40.5762 126.473 40.7143 125.22 41.1592C124.756 41.3279 124.276 41.4353 123.797 41.5274C123.611 41.5581 123.394 41.4813 123.116 41.4507C123.673 40.7756 124.369 40.2693 124.57 39.625C124.771 38.9806 124.493 38.1829 124.431 37.4004C122.698 38.0448 122.203 39.1647 122.791 40.5455C122.899 40.8063 122.915 41.0978 122.977 41.3893C122.667 41.42 122.327 41.5427 122.033 41.4813C118.444 40.7756 115.195 41.4967 112.271 43.6906C111.498 44.2735 110.678 44.8105 109.858 45.3475C109.642 45.4855 109.394 45.5469 109.054 45.685C109.533 42.9235 111.065 41.2666 113.494 40.2847C114.685 39.8091 115.861 39.2721 116.974 38.6585C117.64 38.2903 117.949 38.3516 118.305 39.0267C119.063 40.4688 120.269 40.7449 121.894 39.7324C121.29 39.2108 120.811 38.5357 120.146 38.2902C119.496 38.0448 118.692 38.2442 117.779 38.2442C118.227 37.876 118.568 37.5999 118.893 37.3237C119.032 37.2163 119.264 36.9862 119.248 36.9555C118.862 36.3572 119.45 36.2191 119.728 35.943C120.61 35.0685 120.61 33.7031 119.713 32.7519C118.243 33.5496 117.918 34.5775 118.722 36.0504C119.047 36.6487 119.001 37.0936 118.382 37.4618C117.732 37.83 117.129 38.2749 116.479 38.6278C116.031 38.8732 115.52 39.0267 115.041 39.2261C114.917 39.1801 114.793 39.1494 114.669 39.1034C115.876 37.7993 116.108 36.5566 114.778 35.3907C113.679 36.3265 113.509 37.3237 114.283 38.3209C114.994 39.2414 115.01 39.3488 113.849 39.6557C110.941 40.4074 109.178 42.2177 108.466 45.0713C108.419 45.2401 108.389 45.4395 108.28 45.5776C108.017 45.8691 107.723 46.3293 107.398 46.3754C105.728 46.6208 104.042 46.7743 102.355 46.943C102.278 46.9584 102.185 46.8816 102.015 46.8049C102.665 46.2066 103.361 45.731 103.84 45.102C104.769 43.89 105.573 42.5706 106.439 41.3126C106.981 40.5148 107.538 39.717 108.141 38.9653C108.234 38.8426 108.59 38.9193 108.837 38.9039C108.992 39.0113 109.162 39.088 109.27 39.2261C110.106 40.2693 110.848 40.3767 111.978 39.6096C111.065 38.2135 110.369 38.0448 108.837 38.9039C108.76 38.2289 109.332 38.1368 109.75 37.9834C112.086 37.1856 113.509 35.5748 114.097 33.2121C114.128 33.0587 114.159 32.9053 114.236 32.7825C114.406 32.5064 114.592 32.2609 114.778 32.0001C114.994 32.1996 115.242 32.3683 115.412 32.5984C116.17 33.6263 117.284 33.7491 118.212 32.9053C117.485 31.5399 116.34 31.3864 114.917 32.0308C114.979 31.724 115.01 31.5859 115.025 31.4325C114.979 31.4018 114.932 31.3864 114.886 31.3558C114.468 32.0615 114.035 32.7825 113.54 33.5957C113.478 32.6752 113.633 31.8467 113.339 31.233C113.045 30.6194 112.287 30.2358 111.684 29.7142C110.895 31.4785 111.297 32.5217 112.844 33.1814C113.602 33.519 113.679 33.7337 113.323 34.4548C112.519 36.0503 111.235 37.0782 109.533 37.5999C108.976 37.7686 108.435 38.0294 107.785 38.2749C108.095 37.4311 108.543 36.7561 108.512 36.0964C108.481 35.406 108.002 34.731 107.692 34.0099C106.238 35.0992 106.13 36.4186 107.244 37.5999C107.538 37.9067 107.832 38.1982 107.491 38.6431C106.563 39.9011 105.635 41.1438 104.722 42.4018C104.567 42.6166 104.475 42.8928 104.366 43.1383C104.243 43.0462 104.134 42.9542 104.011 42.8774C104.011 42.1564 104.212 41.3586 103.949 40.7603C103.67 40.1313 102.959 39.7017 102.402 39.1647C101.489 40.5455 101.798 41.8189 103.021 42.4479C103.206 42.5399 103.392 42.6166 103.577 42.7087C104.042 42.9542 104.165 43.2456 103.732 43.6445C103.438 43.9207 103.175 44.2429 102.866 44.519C101.087 46.1299 98.9365 47.0197 96.6778 47.6641C93.6148 48.5539 91.5264 50.4256 90.5518 53.4786C90.2578 54.4298 89.8401 55.335 89.5153 56.2708C89.3606 56.7004 89.144 56.7924 88.7108 56.7157C87.6279 56.5316 86.5296 56.3782 85.4312 56.2401C84.6423 56.1481 83.8378 56.1021 83.0179 56.0407C83.6831 55.0895 84.3019 54.261 84.8588 53.3712C85.3384 52.6041 85.6014 52.4967 86.3904 52.9877C87.7517 53.8468 88.8655 53.6474 89.8401 52.3433C88.6799 51.2387 87.365 50.9932 86.2202 52.2973C86.081 52.4661 85.7716 52.4661 85.4003 52.6041C85.9572 50.7324 87.071 48.9528 88.2622 47.8789C88.8655 47.3266 89.4225 47.3266 90.0258 47.8635C91.2943 48.9835 92.0988 49.0142 93.5839 48.0016C92.764 46.5748 91.6347 46.268 90.2269 47.0811C89.9794 47.2192 89.6855 47.2805 89.407 47.3726C89.3761 47.2805 89.3296 47.1885 89.2987 47.1118C89.5153 46.9584 89.7319 46.7743 89.9794 46.6515C91.0159 46.0992 92.0678 45.5623 93.1198 45.01C93.754 44.6724 94.2027 44.9026 94.543 45.4549C95.3474 46.7589 95.9353 46.9737 97.4977 46.5441C97.2657 45.1941 96.3375 44.565 95.0226 44.8565C94.775 44.9026 94.4192 45.0253 94.28 44.9179C93.8004 44.5037 93.3673 44.7798 92.9187 44.9179C92.3617 45.0867 91.7894 45.2554 91.2324 45.4242C91.2015 45.3475 91.1551 45.2708 91.1242 45.194C91.7429 44.7185 92.4855 44.3349 92.9651 43.7366C93.522 43.0309 93.3363 42.1564 92.9032 41.3739C91.1706 42.1257 90.8612 42.6473 91.0777 44.3503C91.1706 45.0253 90.9849 45.5776 90.2578 45.8998C88.7109 46.5748 87.3031 47.4493 86.2821 48.8454C86.2047 48.9528 86.0655 49.0142 85.9417 49.1062C85.8799 49.0909 85.818 49.0602 85.7561 49.0448C85.8953 48.2931 86.1583 47.526 86.1274 46.7896C86.081 45.8691 85.3539 45.3628 84.534 45.0406C83.7914 46.4981 83.7914 47.572 85.1682 48.5539C85.4776 48.784 85.7406 49.5204 85.6014 49.858C85.1373 51.0086 84.503 52.0979 83.8997 53.2025C83.7759 53.4173 83.513 53.54 83.3118 53.7241C83.219 53.4786 83.0798 53.2485 83.0489 53.003C82.8477 51.3768 81.8422 50.579 80.3416 50.9165C80.3416 52.5888 80.8676 53.2638 82.4301 53.6014C82.6157 53.6474 82.8323 53.6934 82.9715 53.8315C83.0643 53.9235 83.1262 54.2304 83.0643 54.2764C82.229 54.9361 81.4555 55.7952 80.4963 56.1481C78.7792 56.7771 76.9382 57.0686 75.1437 57.5135C74.8962 57.5749 74.6332 57.6516 74.2465 57.7436C74.9117 55.4884 75.7161 53.494 76.7835 51.5916C78.4852 48.5999 80.8985 46.1913 83.1726 43.6599C83.3428 43.4604 83.6367 43.3377 83.8997 43.261C84.9052 42.9542 85.9108 42.6473 86.9318 42.4018C89.902 41.7115 92.7949 40.8216 95.2701 38.9346C95.4248 38.8119 95.6568 38.7965 95.8425 38.7352C95.8425 39.088 95.8425 39.4409 95.8579 39.7937C95.8734 41.1438 96.9099 42.0183 98.3641 41.8956C98.3641 41.6808 98.3795 41.4507 98.3641 41.2359C98.3022 39.8398 97.7762 39.2568 96.3684 38.996C96.1828 38.9653 96.0126 38.8426 95.8425 38.7658C95.9972 38.5817 96.1209 38.367 96.3066 38.2289C97.7298 37.1856 99.3077 36.4646 101.009 35.9736C102.154 35.6361 102.185 35.6361 102.371 36.8328C102.587 38.1982 104.011 38.9806 105.248 38.413C105.171 36.5259 103.933 35.9123 102.139 35.7742C104.428 34.869 105.882 33.2581 106.903 31.2023C107.491 31.9388 107.894 32.6752 108.512 33.1201C109.208 33.6417 110.059 33.3809 111.003 32.9053C110.4 32.2916 109.966 31.5705 109.332 31.2791C108.698 31.0029 107.878 31.1563 107.027 31.1103C107.708 29.5301 108.574 28.1647 109.734 26.9987C110.585 26.1549 110.647 26.1702 111.127 27.2288C111.653 28.3795 112.828 28.717 113.927 28.0419C113.354 26.5538 112.89 26.293 111.25 26.4311C111.034 26.4464 110.817 26.2776 110.492 26.1396C110.013 26.431 109.425 26.7839 108.837 27.1521C108.76 27.1214 108.667 27.0907 108.59 27.0601C109.796 25.5566 109.75 24.2218 108.28 23.0559C107.058 24.2525 106.965 25.6179 108.249 26.6305C108.59 26.9066 108.775 27.2288 108.435 27.6891C107.692 28.7016 106.996 29.7295 106.269 30.7574C106.145 30.9262 106.006 31.0643 105.867 31.2177C105.774 31.2177 105.681 31.2177 105.589 31.2177C106.316 29.4534 105.913 28.1647 104.15 27.4743C103.314 29.0238 103.593 30.0057 105.093 30.8341C105.233 30.9109 105.418 30.9722 105.465 31.0796C105.542 31.3097 105.666 31.6473 105.558 31.8007C104.691 33.074 103.655 34.148 102.123 34.6236C101.907 34.6849 101.659 34.7003 101.365 34.7463C101.737 33.9332 102.262 33.2581 102.278 32.5831C102.293 31.9081 101.783 31.233 101.474 30.4966C99.942 31.6779 99.8182 32.7825 100.917 34.0866C101.412 34.6696 101.365 34.8537 100.623 35.0531C99.8801 35.2679 99.1376 35.4367 98.395 35.6515C98.0237 35.7589 97.6679 35.8969 97.343 36.0043C97.5442 35.2066 97.8226 34.5008 97.869 33.7798C97.9154 32.9206 97.1729 32.445 96.6624 31.862C95.4712 33.2735 95.4867 34.2707 96.7088 35.3907C97.2193 35.8662 97.1574 36.1577 96.585 36.4953C95.8734 36.9095 95.2082 37.3851 94.4966 37.7993C94.2645 37.9374 93.9861 37.9834 93.7386 38.0755C93.785 37.876 93.8159 37.6766 93.8778 37.4925C94.3264 36.0043 93.5375 34.777 91.9595 34.5162C91.2789 36.0043 91.6965 37.0629 93.1816 37.7073C93.3828 37.7993 93.5684 37.9374 93.754 38.0601C93.5684 38.2442 93.3982 38.5357 93.1816 38.6124C91.5882 39.1801 89.9948 39.7477 88.386 40.208C87.4887 40.4688 86.5451 40.5302 85.555 40.6989C85.5704 40.4074 85.555 40.254 85.6014 40.1159C86.0964 38.5357 86.5451 36.9402 87.102 35.3753C87.7826 33.4729 88.8501 31.8007 90.428 30.4813C90.7219 30.2358 91.1241 30.1591 91.48 30.0057C91.4954 30.4046 91.48 30.8188 91.5109 31.2177C91.5882 32.4757 92.8258 33.2888 94.0789 32.9206C93.9242 30.8955 93.754 30.7114 91.8203 30.1744C91.6965 30.1438 91.5882 30.0824 91.4645 30.021C91.6037 29.8062 91.6965 29.5147 91.8976 29.4074C92.8413 28.9164 93.8159 28.4255 94.806 28.0113C95.9817 27.5203 95.9972 27.5663 96.0126 28.8704C96.0126 30.0671 96.7707 30.8955 97.9464 31.0336C98.3176 31.0796 98.5188 30.9876 98.5342 30.558C98.5961 29.3 97.9928 28.4562 96.7707 28.1186C96.5231 28.0573 96.2911 27.9345 96.0126 27.8272C96.1209 27.6737 96.1519 27.5817 96.2138 27.551C97.2812 27.1061 98.3486 26.6765 99.416 26.2623C99.5398 26.2163 99.7099 26.293 99.8646 26.3237C99.8801 26.5231 99.8801 26.7379 99.8956 26.9373C99.9729 28.2414 100.948 28.9011 102.232 28.5329C102.108 27.1521 101.582 26.5691 100.36 26.4464C100.19 26.431 100.004 26.385 99.8337 26.3543C99.8337 26.2623 99.8028 26.1089 99.8646 26.0782C100.808 25.3111 101.767 24.5594 102.711 23.7923C103.082 24.3292 103.361 25.0656 103.902 25.4032C104.428 25.7407 105.233 25.6793 105.929 25.802C105.929 24.3292 104.676 23.3474 103.516 23.7616C103.206 23.869 102.727 23.8997 102.804 23.4241C102.881 22.8104 103.113 22.1967 103.361 21.6137C103.902 20.3864 103.469 19.2051 102.232 18.5761C101.118 19.9722 101.195 20.908 102.479 22.074C102.696 22.2734 103.005 22.749 102.928 22.8564C102.355 23.7156 101.582 24.3599 100.561 25.0196C100.793 24.0684 101.195 23.332 101.087 22.657C100.978 21.9819 100.375 21.3836 99.9729 20.7086C98.6735 22.0433 98.6889 23.1939 99.8956 24.2832C100.05 24.4213 100.251 24.5287 100.329 24.6974C100.406 24.8355 100.406 25.1423 100.313 25.219C99.3387 25.9248 98.2403 26.339 96.9254 26.385C98.1939 25.0349 98.3176 23.7309 97.0955 22.3655C95.7032 23.2706 95.4867 24.5133 96.4767 25.802C96.6778 26.0782 97.0955 26.4157 96.4767 26.6152C95.3629 26.968 94.2181 27.2442 93.0888 27.551C93.1662 27.3669 93.2281 27.1675 93.3363 26.9987C94.2027 25.6486 93.9242 24.5133 92.4855 23.5008C91.3407 24.7741 91.4026 25.8941 92.6557 26.968C92.8413 27.1214 92.9496 27.3516 93.1043 27.551C93.0269 27.6584 92.9651 27.8272 92.8413 27.8885C91.0159 28.7783 89.3606 29.8676 87.9838 31.3558C87.9373 31.4018 87.8445 31.4018 87.7517 31.4478C87.6898 31.3558 87.597 31.2791 87.597 31.187C87.5506 29.5608 87.4887 27.9192 87.4733 26.293C87.4733 25.8634 87.7208 25.7407 88.1539 25.8634C89.7937 26.3237 90.3661 26.0628 91.1706 24.5133C90.5208 24.0991 89.7783 23.9303 89.1285 24.2985C88.5561 24.6207 88.1539 25.219 87.5815 25.802C87.4733 24.4059 87.8909 23.3474 88.7108 22.4422C88.8346 22.3041 89.2987 22.3041 89.4843 22.4268C90.6446 23.2093 91.2634 23.1939 92.2225 22.2274C91.2788 20.954 90.2424 21.3989 89.144 22.1047C89.7937 21.2762 90.4589 20.5551 91.1706 19.8801C91.2943 19.7727 91.6656 19.8341 91.8667 19.9108C93.2435 20.4938 94.2181 20.1409 94.8988 18.7602C93.4137 17.7476 92.3308 18.4073 91.3562 19.8955C91.6811 18.4226 91.9441 17.2413 92.207 16.0753C92.3617 16.106 92.501 16.1367 92.6557 16.1827C94.1408 16.6277 95.0999 16.106 95.5331 14.6025C94.2336 13.9735 93.2745 14.311 92.6402 15.5844C92.5474 15.7685 92.3617 15.9219 92.2225 16.0753C92.0678 16.5356 91.9286 17.0112 91.7275 17.4561C91.6347 17.6556 91.4026 17.7936 91.2324 17.947C91.2015 17.7016 91.1551 17.4561 91.1396 17.1953C91.0623 15.9986 89.9948 15.2469 88.7882 15.5384C88.7727 17.226 89.5772 18.1311 91.2634 17.9164C91.5109 18.7295 90.5363 20.2023 89.4843 20.6165C89.3296 20.371 89.1131 20.1409 89.0048 19.8648C88.5561 18.7448 87.4733 18.3152 86.3285 18.8369C86.6998 20.325 87.4423 20.954 88.6644 20.7853C88.9429 20.7546 89.2059 20.6625 89.4843 20.6012C88.7573 21.3529 88.0302 22.1047 87.2876 22.8718C87.1174 22.7183 86.9163 22.5803 86.808 22.3962C86.081 21.2302 85.0135 21.0154 83.8223 21.8132C84.8434 23.5315 85.6787 23.7923 87.3031 22.8564C87.1793 23.378 86.9627 23.8843 86.9473 24.4059C86.8699 26.4311 86.8545 28.4562 86.8235 30.4813C86.8235 30.65 86.808 30.8035 86.7926 30.9722C86.5296 30.7114 86.4213 30.4659 86.3594 30.1898C85.8799 27.7965 84.9517 25.6333 83.2809 23.8076C82.693 23.1633 82.0897 22.5496 81.5483 21.8592C81.3008 21.537 81.1925 21.1075 81.0068 20.7239C82.6931 21.3376 83.7295 20.7392 84.1163 18.9443C82.8787 18.4533 81.8422 18.9136 81.409 20.1102C81.3317 20.3404 81.1461 20.5245 81.0068 20.7239C80.9914 20.7392 80.9759 20.7699 80.9604 20.7853C80.945 20.8006 80.8985 20.8006 80.8985 20.8006C80.4809 19.9261 80.0632 19.0517 79.6764 18.1618C79.6455 18.0698 79.8002 17.901 79.8621 17.7783C81.7339 17.7629 82.5848 16.9805 82.3837 15.431C80.8831 15.3236 80.0786 15.9066 79.9549 17.1953C79.9394 17.3947 79.9085 17.5942 79.8775 17.7936C79.6919 17.6095 79.398 17.4408 79.3361 17.226C79.0886 16.2748 78.9184 15.3236 78.7173 14.3571C78.7018 14.3571 78.6863 14.3571 78.6709 14.3571C78.6709 14.9094 78.6709 15.477 78.6709 16.0293C77.9593 14.5565 77.0001 13.8354 75.3448 14.5565C75.8863 16.2288 76.5051 16.597 78.114 16.3208C78.5626 16.2441 78.7328 16.3822 78.841 16.8424C79.1659 18.0698 79.5681 19.2818 79.9394 20.4938C80.0013 20.6779 80.0322 20.8773 80.1096 21.2148C78.0521 19.5426 77.6344 19.4659 76.4587 20.4171C77.2322 21.6291 78.2687 22.1047 79.5681 21.3376C79.9549 21.1075 80.2024 21.1995 80.4654 21.5677C81.1151 22.4729 81.8267 23.3474 82.5074 24.2372C82.6621 24.4366 82.8013 24.6514 82.9406 24.8508C82.9096 24.9429 82.8787 25.0349 82.8477 25.127C81.5019 23.9457 80.2797 23.869 79.2123 25.3264C80.7438 26.385 81.2389 26.385 82.5693 25.2651C82.9406 24.9582 83.2036 24.9889 83.4356 25.3878C83.7914 26.0015 84.2091 26.5998 84.4876 27.2595C85.5859 29.8216 85.7406 32.5217 85.1992 35.2066C84.8743 36.7868 84.2246 38.3056 83.6986 39.8398C83.6058 40.0852 83.3737 40.2847 83.2345 40.4841C82.987 39.625 82.7549 38.8426 82.5229 38.0601C82.5848 37.9681 82.6312 37.8147 82.724 37.784C84.1318 37.155 84.271 36.8941 84.0389 35.4367C82.987 35.4674 82.4301 36.0197 82.461 37.0169C82.4765 37.3697 82.4919 37.7226 82.5229 38.0755C81.6102 37.4771 81.0532 36.618 80.6665 35.6208C80.4654 35.0992 80.4499 34.7463 81.1461 34.6389C81.409 34.5929 81.7494 34.4395 81.8577 34.24C82.0588 33.8258 82.1361 33.3502 82.229 32.9053C82.2444 32.8593 81.9505 32.6598 81.9196 32.6905C81.5173 32.9667 80.914 33.2121 80.7748 33.5957C80.388 34.7616 80.2952 35.9736 81.0997 37.0782C81.2698 37.3237 81.3781 37.6152 81.5019 37.8914C81.2079 37.784 80.9295 37.6919 80.651 37.5845C79.6919 37.1703 78.841 37.5538 78.4852 38.5664C79.7538 39.2414 80.2797 39.1494 81.1461 38.1215C81.2389 38.0141 81.3936 37.9681 81.5173 37.9067C81.6411 37.9834 81.7803 38.0448 81.8731 38.1522C83.0953 39.4716 82.724 41.6961 81.6411 42.6473C80.5737 43.5678 79.5217 44.5037 78.4698 45.4242C78.1758 45.685 77.851 45.9151 77.5106 46.1759C77.1858 45.8077 76.9073 45.5162 76.6289 45.2094C74.9426 43.261 73.473 41.1898 72.978 38.5971C72.9315 38.3823 72.8387 38.1061 72.9315 37.9374C73.3647 37.0015 73.8597 36.081 74.3238 35.1452C74.5095 35.2526 74.7261 35.3446 74.8808 35.498C75.7007 36.2958 76.5824 36.3112 77.4797 35.5134C76.7835 34.4701 76.1029 34.3014 75.02 34.8844C74.8034 35.0071 74.5559 35.0531 74.3084 35.1452C75.3294 32.982 77.1084 31.5245 79.0576 30.2512C78.609 30.4353 78.1604 30.6347 77.7272 30.8188C77.6499 30.7728 77.5725 30.7268 77.4797 30.6807C78.7328 29.8369 79.0731 28.8857 78.0985 27.7198C76.9537 28.6096 76.799 29.2233 77.4178 30.3585C77.6499 30.7728 77.5416 31.0029 77.1858 31.2484C75.4377 32.445 74.0918 34.0099 73.0244 35.8049C72.9006 36.0043 72.7614 36.1884 72.6221 36.3879C72.5448 36.3572 72.4829 36.3265 72.4056 36.2958C72.1271 33.074 72.8233 29.975 73.705 26.6919C75.1128 27.9806 76.3504 27.9499 77.4952 26.6458C76.1957 25.2344 75.0045 25.6946 73.8597 26.9373C73.7669 26.6765 73.705 26.5845 73.7205 26.5078C73.8907 25.5566 74.0454 24.6054 74.262 23.6695C74.2929 23.5621 74.8034 23.4087 74.9426 23.5008C76.1029 24.2218 77.2941 23.8536 78.114 22.6109C77.5261 22.1814 76.8764 21.7365 76.1493 22.028C75.5305 22.2734 75.02 22.795 74.4167 23.2093C74.3393 21.8439 74.262 20.5551 74.2155 19.2664C74.2155 19.0977 74.4012 18.9289 74.5095 18.7602C75.9172 19.2204 76.7526 18.7141 77.0465 17.18C75.6697 16.7197 74.9426 17.18 74.5249 18.7755C74.0144 18.9136 74.1073 18.4993 74.0144 18.2385C73.6586 17.1339 73.3028 16.0447 72.947 14.9247C73.0862 14.6179 73.1327 14.1423 73.3647 14.0042C74.6487 13.2985 74.8808 12.8689 74.5404 11.3808C73.5658 11.5188 72.947 12.0251 72.9161 12.7922C72.8851 13.4979 72.9315 14.219 72.947 14.9247C73.21 15.8452 73.5194 16.7504 73.3492 17.8397C72.3592 16.6277 71.3227 16.2901 70.0851 17.3334C71.0442 18.5147 71.6785 18.6681 72.9315 17.9931C73.3802 17.7476 73.6122 17.8397 73.6741 18.3306C73.736 18.9443 73.8133 19.5426 73.8288 20.1563C73.9371 22.9331 73.0708 25.5259 72.2663 28.1186C72.2354 28.1954 72.1426 28.2567 72.0652 28.3488C71.9879 28.2414 71.9105 28.18 71.926 28.134C72.0343 27.0907 71.6011 26.2623 70.9359 25.4952C70.8122 25.3571 70.905 25.0503 70.8895 24.8202C72.2818 24.0838 72.5603 23.2093 71.8177 21.9359C70.3635 22.5496 70.1006 23.3934 70.9205 24.8355C70.6884 24.8355 70.4564 24.8355 70.2243 24.8355C70.4254 25.1577 70.7193 25.5105 70.9205 25.9248C71.168 26.4157 71.5083 26.9527 71.5083 27.4743C71.5083 29.2233 71.4464 30.9876 71.2608 32.7365C70.9359 35.8356 71.0287 38.8886 72.4984 41.6808C73.4575 43.5065 74.6796 45.1941 75.8244 46.897C76.1183 47.3419 76.1183 47.5874 75.7625 48.0016C73.3183 50.8091 71.3072 53.8622 70.2707 57.4675C70.2398 57.5749 70.1315 57.6516 70.0232 57.759C69.3116 56.0867 68.6154 54.4912 67.9502 52.8649C67.316 51.3308 67.579 49.7506 67.8574 48.201C67.9966 47.4033 68.3679 47.2959 69.0641 47.7101C70.3326 48.4465 71.1216 48.3238 72.0962 47.2345C71.2917 46.1606 70.0232 46.0379 69.1105 46.9123C68.9248 47.0964 68.6773 47.2038 68.4607 47.3572C68.4143 47.2959 68.3679 47.2499 68.3215 47.1885C68.6773 46.4828 68.9867 45.7617 69.3889 45.102C69.4818 44.9639 69.9923 44.8719 70.1315 44.9793C71.0906 45.731 72.2509 45.2554 72.7923 44.2889C71.6011 43.2303 70.6265 43.9514 69.6055 44.9026C69.6674 43.936 69.7293 43.215 69.7757 42.5553C69.59 43.2456 69.4508 44.0434 69.1414 44.7491C68.9094 45.2708 68.4143 45.685 68.0276 46.1606C67.9348 45.8691 67.7955 45.5929 67.7491 45.2861C67.6099 44.1048 66.6508 43.4144 65.4441 43.6445C65.5524 45.6083 66.1712 46.1913 68.0431 46.1452C67.6254 47.1425 67.2077 48.1397 66.79 49.1369C66.7745 49.1062 66.6817 49.0448 66.6353 48.9681C65.8618 47.5413 65.0728 46.0992 64.3148 44.6571C64.1292 44.3042 63.8662 43.9053 63.8662 43.5371C63.8817 42.0643 63.9435 40.5915 64.0828 39.1187C64.1446 38.3976 64.5469 38.2135 65.1192 38.6431C66.264 39.4716 67.3933 39.1801 68.306 38.1829C67.1303 37.0322 66.3878 36.9862 65.1192 38.0448C65.0574 38.0908 65.011 38.1829 64.9491 38.1829C64.7789 38.2135 64.6087 38.2596 64.454 38.1982C64.3922 38.1829 64.3458 37.9067 64.3922 37.7993C64.9955 36.5873 65.6298 35.3753 66.2486 34.1633C66.4497 34.2554 66.6817 34.3014 66.8364 34.4548C67.7801 35.3446 68.3989 35.3907 69.5436 34.6082C68.832 33.5343 68.1668 33.3655 67.0375 33.9485C66.8055 34.0713 66.5115 34.0866 66.2486 34.1633C66.527 33.7337 66.8055 33.2888 67.0839 32.8593C67.2232 32.5831 67.316 32.2916 67.5016 32.0615C68.4453 30.9262 68.4298 30.1438 67.3779 29.1005C66.2176 30.2051 66.1557 30.8341 67.0066 32.1842C67.1149 32.3683 67.0839 32.6445 67.1149 32.8746C66.4806 33.611 65.8463 34.3474 65.1966 35.0685C65.0574 35.2219 64.8253 35.2833 64.6397 35.3907C64.6861 35.0685 64.748 34.7463 64.7634 34.4088C64.8253 33.1968 64.0982 32.4604 62.8297 32.4143C62.4275 33.9485 62.8452 34.731 64.2993 35.2066C64.4231 35.2526 64.5314 35.3139 64.6397 35.36C64.6242 35.5901 64.6706 35.8202 64.6087 36.035C64.1601 37.3544 63.6651 38.6738 63.2164 39.9932C63.0927 40.3767 63.0308 40.791 62.9225 41.2666C62.7524 41.1285 62.6595 41.0825 62.6595 41.0364C62.2264 39.1801 61.623 37.3544 61.391 35.4674C60.9578 31.8467 62.1645 28.6403 64.3922 25.7714C65.4441 24.4213 66.3568 23.0252 66.2021 21.1842C66.1557 20.7239 66.3723 20.5398 66.8828 20.7546C68.306 21.3529 69.2342 20.9847 69.9459 19.4966C69.4353 19.3738 68.9558 19.2204 68.4607 19.159C67.3933 19.0056 67.053 20.0028 66.4497 20.5858C65.8927 19.6193 65.8773 16.5049 66.3723 15.9066C68.3834 16.7657 69.2497 16.6277 69.9923 15.2622C69.5746 15.0781 69.1724 14.848 68.7392 14.7253C67.6872 14.4184 67.0685 15.2315 66.4187 15.8759C66.3414 15.7992 66.2795 15.7378 66.2021 15.6611C66.4032 15.2009 66.5889 14.7253 66.79 14.2804C65.5215 15.6458 65.9701 17.4868 65.6762 19.2358C65.1657 18.5147 64.8563 17.8857 64.3612 17.4714C63.7888 16.9959 63.0308 17.0572 62.3501 17.4254C62.9844 19.113 63.433 19.4045 65.0883 19.2051C65.5679 19.1437 65.7999 19.3738 65.769 19.8034C65.6916 21.1995 65.6762 22.6263 64.748 23.8076C64.1137 24.6207 63.4485 25.3878 62.7988 26.1702C60.7567 28.6096 59.6429 31.3711 59.5965 34.5775C59.5501 37.9527 60.4473 41.1285 61.5921 44.2429C61.7159 44.565 61.8087 44.8872 61.9324 45.2401C61.7623 45.2554 61.7004 45.2861 61.6695 45.2554C61.391 45.056 61.128 44.8719 60.865 44.6571C58.6683 42.9081 56.6882 41.0057 55.6981 38.3056C54.7544 35.7742 54.4605 33.1508 54.7389 30.4813C54.9246 28.6556 55.5124 26.9527 56.5799 25.4338C56.9202 24.9429 57.2141 24.8662 57.6628 25.3418C58.6374 26.3543 59.7357 26.293 60.8341 25.2344C59.7821 23.7156 58.5291 24.0531 57.1677 25.0656C57.2141 24.7588 57.1987 24.6667 57.2296 24.6054C58.0495 23.5315 58.8694 22.4575 59.7357 21.4143C59.8595 21.2609 60.2617 21.1995 60.4473 21.2762C62.0717 21.9206 62.5358 21.8132 63.696 20.3864C62.2264 19.2051 61.0971 19.7727 60.0297 21.3069C60.0297 20.9233 60.0142 20.8313 60.0297 20.7392C60.4319 19.4045 60.8496 18.0698 61.2363 16.735C61.391 16.2288 61.7004 16.2441 62.1336 16.3362C63.5258 16.6583 64.454 16.0293 64.7789 14.4031C64.0518 14.4645 63.2938 14.3571 62.7524 14.6332C62.2264 14.9094 61.9015 15.5998 61.4219 16.1981C61.3446 15.2469 61.2827 14.4184 61.2208 13.6053C61.0661 13.3599 60.865 13.1297 60.7567 12.8536C60.3391 11.749 59.1324 11.2887 58.065 11.8717C58.6838 13.7281 59.5346 14.1883 61.2054 13.59C61.4374 15.1088 61.0352 16.5049 60.4009 17.947C60.1534 16.3055 59.5346 15.2009 57.6628 15.523C57.6937 16.9345 58.3434 17.9317 59.844 17.855C60.3545 17.8243 60.6175 18.1005 60.37 18.6374C60.0915 19.2358 59.8595 19.8648 59.5501 20.4478C59.4418 20.6472 59.1479 20.7392 58.9468 20.8927C58.8385 20.5858 58.7456 20.2637 58.6219 19.9568C58.2042 18.9289 57.0594 18.53 56.0229 19.067C56.3942 20.7699 57.276 21.3069 58.9622 20.8773C58.9313 21.1075 58.9777 21.3836 58.8694 21.5524C58.6064 21.9513 58.2816 22.3348 57.9412 22.6723C55.7135 24.8815 54.213 27.459 53.7025 30.5733C53.6715 30.7268 53.5632 30.8648 53.5014 31.0029C53.4395 31.0029 53.3776 30.9876 53.3157 30.9876C53.4085 28.2874 53.7798 25.5566 52.7743 22.9638C52.9908 23.0405 53.2074 23.1326 53.424 23.2093C54.7544 23.7156 55.8064 23.1939 56.2705 21.7978C54.8936 21.1075 54.1047 21.3222 53.2693 22.5803C53.161 22.749 52.9444 22.8411 52.7743 22.9638C52.2638 22.4268 51.7533 21.8899 51.2582 21.3376C51.1035 21.1535 50.9798 20.9387 50.8405 20.7546C52.6969 21.0307 53.3467 20.6165 53.7953 18.9289C52.7743 18.392 51.614 18.7602 51.1963 19.7727C51.0571 20.0949 50.9643 20.4478 50.856 20.7853C49.8814 20.4631 49.4018 19.65 48.9223 18.8522C48.6129 18.3306 48.7676 18.0698 49.3864 17.9931C50.8715 17.7936 51.4129 17.1032 51.3201 15.523C49.4792 15.3543 48.9532 16.5356 48.8294 18.1311C48.7521 18.1005 48.6593 18.0698 48.5819 18.0391C48.4272 17.4714 48.2571 16.9038 48.1024 16.3362C47.9012 16.0907 47.6383 15.8606 47.499 15.5844C46.8802 14.3417 45.8592 14.0042 44.5752 14.6639C45.1785 16.2134 45.8128 16.5509 47.4526 16.2441C47.6692 16.1981 47.9012 16.2901 48.1178 16.3055C48.3035 17.4254 48.4736 18.5454 48.7057 19.9415C47.793 18.2692 46.6637 17.901 45.1785 18.7755C45.952 20.0796 46.8493 20.6165 47.7775 20.1256C48.6438 19.6653 49.1234 19.8801 49.6339 20.5858C49.8814 20.9387 50.2527 21.1995 50.5621 21.5063C50.7168 21.6751 50.856 21.8592 50.9952 22.0433C50.3764 21.9052 49.8659 21.5063 49.34 21.491C48.8449 21.491 48.3344 21.8899 47.7311 22.1507C48.8913 23.1326 49.572 23.24 50.33 22.6723C51.1499 22.0586 51.2427 22.0586 51.7842 22.9485C52.0627 23.4241 52.2792 23.9457 52.4494 24.4826C52.5732 24.8508 52.5577 25.2804 52.5886 25.6793C51.908 25.2344 51.4903 24.6207 50.9179 24.3139C50.2836 23.9917 49.5256 24.1451 48.9068 24.59C49.8659 26.1702 50.2836 26.3543 51.9853 25.9094C52.5113 25.7714 52.635 26.0168 52.6196 26.4617C52.6041 27.8118 52.6041 29.1619 52.5732 30.512C52.5577 30.8495 52.4494 31.1717 52.3566 31.6626C50.8096 29.9597 49.077 28.8551 47.2206 27.8885C47.1123 27.8272 47.0504 27.4436 47.1432 27.3055C47.2825 27.0754 47.5609 26.9373 47.762 26.7379C48.6747 25.8327 48.5665 24.3753 47.3598 23.4394C46.9885 24.1144 46.4316 24.7435 46.3388 25.4185C46.246 26.0935 46.6482 26.8299 46.8648 27.6737C45.5962 27.2748 44.4205 26.922 43.3531 26.5845C43.6934 25.7407 44.1575 25.0349 44.2194 24.2985C44.2813 23.5008 43.7398 22.8411 42.8271 22.3195C42.5796 23.0865 42.131 23.7769 42.1774 24.4366C42.2238 25.127 42.7652 25.7714 43.152 26.5231C42.1 26.4157 41.1718 26.0935 40.2901 25.6179C39.4702 25.173 39.4547 24.9582 40.1818 24.3599C41.373 23.3627 41.4194 22.0433 40.2901 20.9387C38.6657 21.9819 38.6967 23.3627 39.5939 24.9429C39.2381 24.8508 39.0061 24.7588 38.8359 24.6054C38.4337 24.2525 38.0469 23.869 37.6602 23.5008C36.9486 22.795 36.964 22.6723 37.7375 21.9973C38.8823 21.0154 38.9132 19.742 37.7994 18.6374C36.5773 19.4966 36.2369 20.4478 36.6546 21.5524C36.9486 22.3195 37.1342 23.1326 37.3662 23.915C37.0878 23.8843 36.8093 23.8536 36.5309 23.8076C35.2005 23.5621 34.2413 24.2985 34.164 25.664C35.8193 26.0322 36.469 25.6946 37.0569 24.1758C37.1033 24.0684 37.258 23.9917 37.3662 23.915C37.49 23.9457 37.6292 23.9457 37.7221 24.007C38.4801 24.6361 39.2381 25.2804 39.9961 25.9401C40.1818 26.1089 40.3055 26.3237 40.4602 26.5231C38.6193 26.4617 38.0005 26.9527 37.8768 28.6096C39.0834 28.9471 39.9497 28.4101 40.1508 27.2288C40.1972 26.9834 40.3519 26.7532 40.4448 26.5231C40.553 26.4771 40.6923 26.3697 40.7851 26.4004C41.7752 26.7686 42.7498 27.1521 43.7244 27.551C43.8481 27.597 43.91 27.7965 44.0183 27.9192C43.8945 27.9959 43.7708 28.134 43.6316 28.1493C41.9299 28.4101 41.4503 29.438 41.6514 31.0489C43.4769 31.2023 44.2349 29.9136 44.0957 28.717C44.0647 28.4408 44.0338 28.1647 43.9874 27.8885C44.2039 27.8732 44.4669 27.7811 44.6526 27.8732C45.8438 28.3948 47.0349 28.9471 48.2106 29.5147C48.3653 29.5915 48.4582 29.8062 48.5819 29.9443C48.3963 30.0671 48.2416 30.2358 48.0405 30.2972C46.5863 30.65 46.1996 31.0643 45.983 32.4757C45.9056 32.9973 46.0913 33.1661 46.6018 33.1354C47.7311 33.0434 48.5355 32.1996 48.6129 31.0029C48.6283 30.6961 48.6593 30.3892 48.6902 30.0517C51.0726 30.8188 54.7854 37.83 54.3986 40.8216C52.8361 40.4995 51.2737 40.2233 49.7422 39.8244C48.7366 39.5483 47.7775 39.088 46.8184 38.6738C46.6327 38.5971 46.509 38.367 46.3388 38.2135C46.4935 38.0755 46.6482 37.9067 46.8338 37.784C47.0195 37.6612 47.2515 37.5692 47.4526 37.4925C48.3499 37.1396 48.783 35.4827 47.8394 34.3934C47.2825 34.9151 46.5244 35.3293 46.246 35.943C45.9675 36.5566 46.1841 37.3851 46.1841 38.2749C45.2559 37.6919 44.436 37.155 43.6161 36.6487C42.6724 36.0657 42.6724 36.0504 43.4614 35.3139C44.5597 34.3014 44.4979 32.9206 43.1675 31.8774C42.7962 32.5524 42.1929 33.1814 42.131 33.8565C42.0536 34.5469 42.4868 35.2986 42.7034 36.0504C41.6669 35.7589 40.6149 35.452 39.563 35.1759C38.5574 34.8997 38.5265 34.823 39.1917 34.0252C40.1663 32.8593 39.9343 31.4632 38.5729 30.6194C38.2944 31.141 37.7685 31.6626 37.7994 32.1535C37.8458 33.028 38.2171 33.8872 38.4646 34.777C38.4956 34.777 38.3873 34.823 38.3099 34.7923C36.5618 34.3628 35.3242 33.2581 34.4115 31.7547C34.3187 31.6012 34.5198 31.2177 34.69 31.0182C34.8447 30.8341 35.1386 30.7881 35.3552 30.65C36.469 29.9443 36.6701 28.5175 35.6646 27.3822C35.1695 27.9345 34.4888 28.3795 34.2413 29.0085C33.9938 29.6375 34.1949 30.4506 34.1949 31.3864C33.9319 31.0182 33.7618 30.7881 33.5916 30.5426C33.0192 29.6989 32.4623 28.8397 31.8435 28.0266C31.2556 27.2595 31.2247 27.2288 31.9518 26.5231C33.0037 25.4952 32.8954 24.0224 31.5341 22.9791C31.2092 23.6849 30.6987 24.3446 30.6523 25.0349C30.6059 25.71 31.0391 26.4157 31.302 27.2748C30.6059 26.8299 30.0026 26.4464 29.3528 26.0322C29.3528 26.247 29.3528 26.3543 29.3528 26.4464C29.1517 26.4464 28.9352 26.4771 28.7495 26.4464C27.2644 26.2009 26.5683 26.6458 26.1042 28.1186C27.5429 28.717 28.4246 28.3641 29.0434 26.9373C29.1208 26.7532 29.2446 26.5998 29.3528 26.4157C29.5075 26.4771 29.7087 26.4771 29.8324 26.5845C31.2092 27.7504 32.1529 29.2386 32.9264 30.8341C32.9573 30.9109 32.9264 31.0336 32.9109 31.2944C31.1319 30.7114 29.8788 31.2023 29.291 32.9973C30.8689 33.7491 31.9208 33.3655 32.6325 31.816C32.7253 31.6166 32.8645 31.4325 32.9883 31.2484C33.7308 32.2149 34.3032 33.1661 35.0922 33.9178C35.8657 34.6542 36.8712 35.1452 37.7839 35.7742C37.0723 36.0043 36.2988 36.1271 35.6646 36.4799C34.9529 36.8941 34.9065 37.7379 34.7209 38.4897C34.8911 38.5511 34.9839 38.5971 35.0767 38.6124C36.5463 38.7658 37.4127 38.0755 37.7221 36.4799C37.8149 36.035 37.8922 35.6668 38.4956 35.8356C40.4448 36.3725 42.2857 37.1396 43.8945 38.3823C44.0183 38.4744 44.0957 38.6278 44.2349 38.7965C44.0183 38.8886 43.8791 38.9653 43.7244 38.996C41.9763 39.2261 41.7752 40.0546 41.5741 41.4046C41.5122 41.8956 41.6978 42.0643 42.1774 41.9723C43.5387 41.7115 44.0802 41.0518 44.1111 39.6403C44.1111 39.3795 44.2504 39.134 44.3277 38.8732C44.5598 38.9653 44.8073 39.0267 45.0084 39.1647C47.1742 40.7143 49.6184 41.6501 52.2019 42.1871C54.8627 42.7394 57.1368 43.6906 58.9777 45.9305C61.7313 49.275 64.2065 52.6808 65.4751 56.8385C65.5524 57.0993 65.5988 57.3908 65.6916 57.7897C65.2739 57.6516 65.0419 57.5595 64.7944 57.4828C63.433 57.0993 62.0871 56.547 60.7103 56.4089C59.318 56.2555 58.2816 55.6878 57.3688 54.7366C57.1677 54.5219 57.0285 54.261 56.8583 54.0156C57.1368 53.8775 57.3998 53.6627 57.6937 53.6014C59.1788 53.2485 59.7821 52.4047 59.5965 50.8859C57.8948 50.7324 57.1058 51.4075 56.9821 53.0797C56.9666 53.3099 56.7964 53.5246 56.7036 53.7394C56.518 53.6014 56.2395 53.5093 56.1312 53.3252C55.5588 52.2973 55.0638 51.2387 54.476 50.2108C54.0892 49.5204 54.3058 48.9988 54.8318 48.5386C56.1158 47.4186 56.255 46.7436 55.466 45.1327C53.9809 45.5929 53.424 46.8049 54.0737 48.2317C54.2284 48.5692 54.5069 48.9068 53.919 49.1983C52.8052 47.6027 51.2273 46.6208 49.5101 45.8384C48.9377 45.5776 48.814 45.01 48.9068 44.4116C49.1853 42.8161 48.6902 42.0183 47.0813 41.4813C46.3078 42.9235 46.8493 44.2582 48.0869 44.7031C48.3653 44.8105 48.5819 45.0867 48.8294 45.2861C48.7676 45.3628 48.7212 45.4242 48.6593 45.5009C48.0095 45.3014 47.3443 45.0867 46.6946 44.8872C46.509 44.8258 46.1996 44.7031 46.1067 44.7798C45.6272 45.1941 45.1476 44.9486 44.6526 44.8872C43.415 44.7338 42.5023 45.5162 42.5332 46.6669C44.2039 46.989 44.5133 46.8356 45.4415 45.5469C45.6581 45.2401 46.3078 44.9179 46.5554 45.0406C47.9322 45.6696 49.2471 46.4367 50.5621 47.1578C50.6085 47.1731 50.593 47.2959 50.6394 47.572C50.2527 47.4186 49.9433 47.3572 49.6958 47.2038C48.3344 46.3754 47.2051 46.6669 46.3543 48.0783C47.6537 49.0909 48.6283 49.0755 49.835 47.9863C50.4693 47.4186 51.0416 47.4033 51.6759 47.9556C52.9908 49.0909 53.7179 50.625 54.3986 52.1746C54.445 52.282 54.4141 52.5121 54.3367 52.5735C54.2439 52.6348 54.0273 52.6195 53.919 52.5581C53.7179 52.4354 53.5787 52.2513 53.3931 52.1132C52.2947 51.162 50.9333 51.3615 50.1134 52.5735C51.2118 53.5707 52.0317 54.123 53.6406 53.0184C54.2594 52.5888 54.5997 52.7576 55.0019 53.4019C55.4042 54.0463 55.8528 54.6753 56.3014 55.2889C56.487 55.5498 56.6882 55.7799 56.8738 56.0254C56.7655 56.1174 56.75 56.1481 56.7346 56.1481C54.8318 56.3782 52.9135 56.6083 51.0107 56.8078C50.8251 56.8231 50.5157 56.593 50.4228 56.3936C50.0361 55.473 49.6648 54.5525 49.3709 53.6014C48.3344 50.3336 46.0294 48.4772 42.7498 47.5874C40.3674 46.943 38.1862 45.8691 36.4535 44.0434C35.6646 43.215 35.68 43.1076 36.732 42.6166C38.0779 41.9876 38.4646 40.5915 37.5055 39.2261C36.9486 39.7784 36.2369 40.208 35.9585 40.8523C35.68 41.466 35.8347 42.2791 35.8038 43.2303C35.4016 42.724 35.1386 42.4018 34.8911 42.0643C34.2104 41.0978 33.5761 40.1159 32.8645 39.1801C32.1684 38.2902 32.1374 38.3209 32.88 37.4771C33.8391 36.4032 33.6225 34.9918 32.2302 34.1326C31.9363 34.8383 31.4258 35.5287 31.4103 36.2191C31.3949 36.8941 31.8744 37.5845 32.1993 38.3976C31.3794 38.0755 30.7142 37.784 30.018 37.5385C28.6412 37.0782 27.6047 36.2191 26.8622 34.9918C26.166 33.8411 26.1815 33.6263 27.4191 33.1508C28.6567 32.6598 29.0899 31.0182 28.1153 29.8676C27.5738 30.3585 26.8622 30.7728 26.5683 31.3711C26.2743 31.9848 26.4136 32.7979 26.3517 33.7644C25.934 32.982 25.6246 32.3837 25.2379 31.6473C25.0986 31.9848 25.0367 32.1229 24.9903 32.2609C23.5207 31.3404 22.5306 31.5859 21.7726 33.028C22.8555 33.8565 23.8146 33.7031 24.5726 32.6138C24.6809 32.4757 24.8511 32.3683 24.9903 32.2609C25.1296 32.2609 25.3771 32.2149 25.408 32.2916C25.5937 32.6291 25.7638 32.9667 25.8566 33.3349C26.4136 35.5287 27.6512 37.1243 29.8479 37.922C30.1573 38.0294 30.4821 38.1675 30.7451 38.3516C30.8844 38.459 30.9153 38.7352 30.9927 38.9346C29.523 38.1675 28.5639 38.413 28.0224 39.7324C28.9506 40.3154 29.7241 40.3307 30.312 39.7324C30.5595 39.4869 30.7606 39.1801 30.9772 38.9039C31.4103 38.5511 31.7352 38.8579 31.9673 39.1494C32.5087 39.8551 33.0347 40.5762 33.4833 41.3586C34.6281 43.3377 35.8038 45.2861 37.7375 46.6362C37.7994 46.6822 37.8149 46.8049 37.8922 46.9737C36.2215 47.0811 34.659 46.897 33.0811 46.6208C32.1838 46.4674 31.6888 46.0532 31.4722 45.1634C30.807 42.2945 29.0125 40.4688 26.1196 39.7324C26.0423 39.717 25.9804 39.6864 25.9031 39.6557C24.9594 39.3335 24.9285 39.2108 25.5627 38.4744C26.4445 37.4311 26.2898 36.3265 24.9594 35.3446C24.7273 36.035 24.3406 36.664 24.3561 37.2777C24.3715 37.922 24.7892 38.5357 25.0986 39.3181C24.7428 39.1954 24.5108 39.1647 24.3251 39.0573C23.4743 38.5971 22.608 38.1368 21.7881 37.6152C20.798 37.0015 20.798 36.9555 21.3549 35.9276C22.0665 34.6236 21.5405 33.2735 20.1637 32.8286C19.2974 34.148 19.2819 35.3753 20.5969 36.2958C20.9063 36.5106 21.0764 36.7714 20.4731 36.8788C21.0146 37.3237 21.5405 37.7686 22.082 38.2135C22.082 38.3209 22.082 38.4283 22.0665 38.5204C20.3339 37.9067 18.9725 38.1522 18.2609 39.8858C19.6687 40.791 20.8908 40.5148 21.6643 39.0573C21.9892 38.4437 22.2986 38.2902 22.9328 38.6738C23.5826 39.0727 24.2942 39.3795 24.9903 39.717C26.1196 40.2693 27.2953 40.7296 28.3628 41.4046C29.9098 42.3712 30.5595 43.936 30.8225 45.7157C29.9716 45.2861 29.1827 44.7645 28.3937 44.2582C27.3108 43.5678 26.2743 42.7854 25.1296 42.2484C22.8245 41.1438 20.3803 41.0518 17.8896 41.5581C17.6267 41.6041 17.3482 41.5274 17.0697 41.512C17.1007 41.2512 17.0543 40.9597 17.1471 40.7296C17.7814 39.1801 17.3637 38.1675 15.7548 37.5078C14.9194 39.0727 15.0896 39.8858 16.4355 40.929C16.6056 41.0518 16.6985 41.2666 16.8377 41.4507C16.7913 41.5274 16.7449 41.6041 16.6985 41.6808C16.0487 41.512 15.3835 41.3893 14.7338 41.1745C13.5426 40.7756 13.4807 40.6222 13.9912 39.4716C14.5791 38.1522 13.9912 36.9248 12.5835 36.4799C11.9028 37.83 11.9801 38.7965 12.7382 39.579C13.357 40.1926 13.8984 40.883 14.5172 41.5734C13.8056 41.7882 12.9857 41.8189 12.4597 42.2331C11.9183 42.6627 11.6707 43.4604 11.284 44.1048C12.6144 44.6878 13.9912 44.0588 14.3006 42.9081C14.6719 41.5581 14.6564 41.6194 16.0642 41.8035C17.1471 41.9569 18.2609 41.9569 19.5295 42.0336C18.5549 43.3837 18.3692 44.6724 19.8389 45.731C20.9063 44.7798 20.9372 43.7519 19.9626 42.7701C19.777 42.5859 19.6687 42.3251 19.5295 42.1104C19.7924 42.0183 20.0709 41.8342 20.3339 41.8189C22.5925 41.8035 24.6345 42.5092 26.4445 43.8286C27.1097 44.3196 27.744 44.8565 28.4556 45.4242C27.0788 46.36 25.7638 47.0197 24.2787 47.3419C24.0931 47.3879 23.892 47.3112 23.7063 47.2959C23.7373 47.0811 23.7063 46.851 23.7991 46.6515C24.4798 45.1634 24.2323 44.2889 22.8091 43.2763C21.6798 44.5037 21.7571 45.6696 23.0257 46.7436C23.1804 46.8816 23.2732 47.0964 23.3969 47.2805C23.1804 47.3726 22.9638 47.4953 22.7472 47.5413C22.577 47.572 22.3914 47.526 22.2212 47.4953C20.9836 47.2652 19.746 47.0811 18.5239 46.7896C18.23 46.7129 17.8432 46.3293 17.7814 46.0225C17.441 44.427 16.42 43.8747 14.8421 44.0894C14.6719 45.5623 15.6465 46.6055 17.1471 46.5441C17.3946 46.5288 17.6421 46.5902 17.8896 46.6055C17.8896 46.6822 17.8896 46.7589 17.8742 46.8356C17.5957 46.943 17.2863 47.0197 17.0543 47.1885C16.6985 47.434 16.3736 47.7408 16.0333 48.0169C15.9559 48.1704 15.925 48.3545 15.8167 48.4772C14.8885 49.4744 14.8575 50.1188 15.7239 51.1773C16.7913 50.3796 16.9305 49.7352 16.2808 48.646C16.1725 48.4465 16.1106 48.2317 16.0178 48.0169C17.0852 46.9584 18.9416 46.6362 20.303 47.2805C20.3958 47.3266 20.4267 47.4646 20.4886 47.572C20.4267 47.7254 20.3958 47.9095 20.2875 48.0169C19.3593 49.0295 19.3283 49.6585 20.2411 50.6864C21.324 49.858 21.4477 49.2443 20.7516 48.109C20.6433 47.9402 20.5814 47.7408 20.4886 47.5567C21.1229 47.6334 21.7417 47.6948 22.3759 47.7868C24.6036 48.063 26.5837 47.2805 28.4711 46.2373C28.9661 45.9765 29.3219 45.9765 29.8015 46.268C31.7043 47.4646 33.7927 48.0936 36.0513 48.2624C37.9696 48.4005 39.9188 48.5079 41.7906 48.8914C45.3487 49.6125 47.7466 51.6529 48.4427 55.3503C48.8604 57.5902 48.6283 58.1272 46.8184 58.7869C46.6482 58.8482 46.4007 58.8943 46.246 58.8176C45.0703 58.2039 43.8945 57.5595 42.7343 56.9305C42.0691 56.5623 42.0536 56.3475 42.657 55.8106C43.8636 54.7366 43.8945 53.3866 42.7034 52.2666C41.2647 53.2485 41.0481 54.215 41.9299 55.6265C42.0536 55.8413 42.0846 56.1021 42.1619 56.3475C42.0691 56.4089 41.9763 56.4549 41.8835 56.5163C41.0945 55.8413 40.2746 55.1969 39.5166 54.4758C38.9596 53.9389 38.4956 53.3099 37.985 52.7269C38.0624 52.5581 38.1088 52.3433 38.2326 52.2052C39.1917 51.2234 39.2381 50.4409 38.3718 49.367C37.258 50.0114 37.0414 50.8859 37.7066 51.9598C37.8458 52.1899 37.9077 52.4661 38.0005 52.7269C37.6602 52.4661 37.3198 52.1899 36.9795 51.9444C36.3916 51.5302 35.7883 51.116 35.2005 50.7018C35.2469 50.6711 35.2933 50.6404 35.3397 50.6097C35.6027 50.9779 35.8811 51.3461 36.1441 51.7143C35.7729 51.6223 35.4016 51.5609 35.0458 51.4535C33.9474 51.116 32.9109 51.745 32.6634 52.8956C34.3187 53.6014 34.8447 53.4479 35.8657 51.9751C35.943 51.8677 36.0513 51.791 36.1287 51.7143C37.5055 52.6502 38.3254 54.0616 39.3464 55.3196C38.5574 55.1509 37.8613 54.7673 37.1342 54.6753C36.2524 54.5679 35.6182 55.1509 35.1231 55.8412C36.5463 57.0226 37.5364 56.9919 38.8668 55.7799C39.2072 55.473 39.4702 55.381 39.9343 55.7185C41.1718 56.6544 42.4713 57.5135 43.7553 58.4033C44.1111 58.6488 44.4824 58.8943 44.8537 59.1397C43.7553 59.5386 42.7498 59.2778 41.7906 59.017C40.1818 58.5721 38.6038 57.9891 36.9795 57.6209C35.9275 57.3908 35.0458 56.9305 34.2568 56.2708C33.6844 55.7952 33.1894 55.2429 32.6943 54.6753C31.6114 53.4479 30.5286 52.2206 29.4921 50.9626C29.3683 50.8245 29.4147 50.3949 29.554 50.2262C30.4512 49.0755 30.4357 48.3698 29.3683 47.1731C27.976 48.2317 28.27 49.3824 29.3219 50.579C29.2446 50.5944 29.1827 50.625 29.1053 50.6404C28.8578 50.5637 28.6103 50.4716 28.4092 50.4103C28.9816 50.9472 29.6004 51.5302 30.2192 52.1132C30.1573 52.1899 30.0954 52.2513 30.0335 52.328C29.3374 52.0211 28.6722 51.5762 27.9606 51.4228C27.0788 51.2387 26.3981 51.7603 25.8721 52.4507C27.218 53.7087 28.1926 53.7548 29.554 52.7115C29.786 52.5274 30.3739 52.42 30.4667 52.5274C31.0545 53.2945 31.565 54.123 32.091 54.9207C32.0291 54.9668 31.9518 55.0128 31.8899 55.0588C31.3175 54.7673 30.7606 54.2764 30.1727 54.215C29.554 54.1537 28.9042 54.5219 28.2235 54.706C28.9661 56.0867 30.049 56.3168 31.2402 55.5958C31.5186 55.427 32.091 55.2583 32.2302 55.3963C32.7253 55.8719 33.0966 56.4856 33.5142 57.0686C32.3076 57.2987 31.1628 57.4675 30.0645 57.759C28.8269 58.0812 28.8423 58.1272 28.0998 57.1453C27.0324 55.7185 25.9185 54.3684 24.0931 53.8161C23.5052 53.6474 23.6135 53.2025 23.8146 52.7576C24.4025 51.3768 24.1395 50.6097 22.84 49.8273C21.9273 50.8705 22.0201 51.9138 23.0566 52.8036C23.2577 52.9877 23.4124 53.2332 23.5826 53.4479C23.5207 53.5093 23.4743 53.5707 23.4124 53.632C22.4687 53.5246 21.5405 53.4326 20.5969 53.2792C19.6377 53.1411 19.4985 52.9417 19.4985 51.9905C19.483 50.7478 18.9416 50.1648 17.6421 50.0421C17.1935 51.2234 17.6267 52.1285 18.8024 52.4967C19.0035 52.5581 19.3129 52.5888 19.3593 52.7115C19.6377 53.5246 20.4112 53.3712 20.9836 53.5707C21.4477 53.7241 21.9273 53.8008 22.4069 53.9082C20.4886 54.5525 20.1173 54.9054 20.1328 56.1174C21.5096 56.2708 22.2057 55.8873 22.3914 54.7827C22.5151 54.0156 22.871 53.9542 23.5207 54.1383C25.7793 54.7673 26.7539 56.6544 27.9606 58.3573C27.1252 58.971 25.7948 59.2932 24.5262 59.1858C24.3406 59.1704 24.1704 59.0477 24.0003 58.9863C24.0776 58.8176 24.1085 58.5874 24.2323 58.4647C25.3616 57.4675 25.1914 56.3475 24.1704 55.2122C22.9174 56.1788 22.7781 57.0532 23.6445 58.2959C23.7682 58.4647 23.7527 58.7408 23.8146 58.9556C23.5826 58.971 23.2886 59.0937 23.103 59.0017C22.1439 58.5107 21.2157 57.9891 20.2875 57.4521C19.4985 56.9765 18.7869 56.3782 17.9515 55.9947C17.209 55.6571 16.8841 55.2429 16.9769 54.4298C17.1007 53.1411 16.3581 52.328 15.0432 52.1899C14.6564 53.7241 15.0896 54.6599 16.4509 54.9975C16.6521 55.0435 16.7913 55.3196 16.9615 55.4884C16.9305 55.5498 16.8841 55.6265 16.8532 55.6878C16.4974 55.6878 16.1261 55.6111 15.7857 55.7032C15.1979 55.8719 14.641 56.1327 14.0841 56.3629C13.7592 56.1327 13.357 55.9486 13.1094 55.6418C12.0266 54.3684 11.6243 54.2457 10 54.8747C10.4177 56.1634 11.3459 56.7618 12.4752 56.3015C13.0785 56.056 13.5426 56.2401 14.0686 56.3629C14.873 56.2095 15.6929 55.8719 16.4819 55.9486C18.462 56.1634 19.746 57.5902 21.3858 58.9249C20.2875 59.4005 19.3748 59.8608 18.4311 60.183C17.7814 60.4131 17.472 60.1216 17.6421 59.4312C17.8896 58.388 17.3173 57.5442 16.1261 57.2987C15.631 58.2346 15.894 59.0477 16.8377 59.5079C17.1162 59.646 17.3637 59.8148 17.6267 59.9682C17.5803 60.0602 17.5493 60.1369 17.5029 60.229C17.209 60.1983 16.8996 60.1676 16.6056 60.1369C17.0852 60.3364 17.5957 60.3824 18.0908 60.4591C18.3692 60.5052 18.6631 60.5819 18.9416 60.6586C18.8333 60.904 18.756 61.1648 18.6167 61.395C17.9051 62.5303 18.2455 63.7116 19.5295 64.2332C19.7306 63.7423 19.9781 63.2667 20.1018 62.7604C20.3494 61.7785 19.4521 61.2569 18.9725 60.5358C19.7151 60.1676 20.4112 59.8915 21.03 59.5079C21.5405 59.1858 21.9428 59.1397 22.4997 59.4005C23.5516 59.8915 24.6809 60.137 25.8721 59.8915C26.3672 59.7994 26.8777 59.7687 27.5429 59.692C27.3418 59.9222 27.2953 60.0296 27.218 60.0756C26.1351 60.8427 25.0367 61.6098 23.9384 62.3615C24.0157 62.4842 23.892 62.3922 23.7991 62.3769ZM117.903 26.8453C117.763 26.7839 117.64 26.7225 117.5 26.6765C117.021 27.0601 116.448 27.3822 116.077 27.8578C115.35 28.7783 116.077 29.7449 116.154 30.6961C116.711 30.1591 117.454 29.7295 117.732 29.0852C118.042 28.4408 117.872 27.597 117.903 26.8453ZM22.4533 26.7839C21.9428 28.3488 22.0975 29.1772 22.9947 29.8523C23.3815 30.1591 23.7527 30.4813 24.0003 30.6807C24.0312 30.4813 24.0621 30.1284 24.1704 29.7909C24.65 28.3181 24.0467 27.2135 22.4533 26.7839ZM66.2795 10C65.3668 11.6109 65.8463 12.7615 67.316 13.5133C67.4397 12.961 67.7182 12.2859 67.7027 11.6262C67.6563 10.8285 67.0066 10.3682 66.2795 10ZM130 54.9975C128.175 53.9082 127.262 55.1816 126.411 56.2401C126.612 56.2555 126.937 56.2248 127.215 56.3168C128.608 56.7618 129.428 56.3936 130 54.9975ZM81.9814 11.795C80.5427 11.4114 79.6609 11.8717 79.2742 13.0837C79.0886 13.6667 79.3051 13.8201 79.8311 13.8354C80.9914 13.8968 81.7339 13.2218 81.9814 11.795ZM12.2277 62.024C12.8929 61.9166 13.5735 61.9933 13.9603 61.6865C14.4863 61.2569 14.7957 60.5665 15.1669 60.0142C13.589 59.7534 12.3978 60.0296 12.2277 62.024ZM127.401 61.9319C127.447 61.8859 127.85 61.7018 127.85 61.5024C127.865 60.6432 126.798 59.8148 125.947 59.9222C125.405 59.9989 125.096 60.183 125.375 60.812C125.699 61.5637 126.194 61.9166 127.401 61.9319ZM66.9138 40.837C66.9911 41.3279 67.0066 41.7575 67.1458 42.1564C67.3933 42.7854 67.8729 43.215 68.5845 43.215C68.7547 43.215 69.0641 42.9388 69.095 42.7701C69.2652 41.6041 68.5381 40.9444 66.9138 40.837ZM70.8741 26.6765C69.6365 25.6946 68.3989 25.9248 67.9657 27.1981C69.4508 27.9959 70.2398 27.8732 70.8741 26.6765ZM119.217 60.8887C117.872 60.4898 116.711 61.0268 116.68 62.2848C117.98 62.9292 119.094 62.3155 119.217 60.8887ZM82.1516 27.4436C81.7958 27.551 81.5019 27.6124 81.2234 27.7198C80.5427 27.9345 80.2643 28.4255 80.2333 29.1159C80.2179 29.5301 80.388 29.6528 80.8057 29.5915C81.8731 29.392 82.3837 28.6403 82.1516 27.4436ZM25.2997 50.9626C26.2279 50.1801 26.3826 49.3363 25.7948 48.5386C25.4699 48.0783 25.2069 48.155 24.8975 48.5386C24.3406 49.2289 24.4334 49.8733 25.2997 50.9626ZM74.1691 29.9136C73.4575 31.2484 73.6896 32.0922 74.9117 32.5678C75.7007 31.4632 75.4686 30.5733 74.1691 29.9136ZM30.8844 63.236C30.9462 61.9626 30.0799 61.3489 28.7186 61.7018C28.7959 63.0365 29.4921 63.5275 30.8844 63.236ZM111.452 61.7018C110.322 61.4563 109.58 61.7785 109.239 62.5916C109.054 63.0519 109.147 63.3127 109.703 63.3434C110.709 63.4048 111.22 62.9445 111.452 61.7018ZM66.8209 23.5008C67.6718 24.4673 67.9038 24.4826 69.5436 23.7769C68.7547 23.1019 67.8729 22.4729 66.8209 23.5008ZM80.0322 35.2372C79.7847 33.9639 79.0886 33.565 77.9902 34.0252C78.2687 35.2372 78.9339 35.6515 80.0322 35.2372ZM79.9703 32.0308C79.2278 31.0489 78.5471 30.9722 77.7117 31.724C78.2687 32.6598 78.8101 32.7365 79.9703 32.0308Z" fill="white"/>
<path d="M33.313 112.303C33.313 111.705 33.1145 111.243 32.7175 110.918C32.3263 110.594 31.6169 110.266 30.5893 109.936C29.5616 109.605 28.7442 109.237 28.137 108.832C26.9751 108.052 26.3941 107.035 26.3941 105.781C26.3941 104.683 26.8116 103.778 27.6465 103.067C28.4873 102.356 29.5762 102 30.9133 102C31.8008 102 32.5919 102.175 33.2868 102.524C33.9816 102.873 34.5275 103.373 34.9245 104.021C35.3216 104.664 35.5201 105.378 35.5201 106.164H33.313C33.313 105.453 33.1028 104.898 32.6824 104.499C32.2679 104.093 31.6723 103.89 30.8958 103.89C30.1718 103.89 29.6083 104.056 29.2055 104.386C28.8084 104.717 28.6099 105.179 28.6099 105.771C28.6099 106.27 28.826 106.689 29.258 107.025C29.6901 107.356 30.4024 107.68 31.395 107.999C32.3876 108.311 33.1846 108.669 33.786 109.075C34.3874 109.474 34.8282 109.936 35.1084 110.46C35.3887 110.978 35.5288 111.586 35.5288 112.285C35.5288 113.42 35.1201 114.325 34.3027 114.999C33.4911 115.666 32.3876 116 30.9921 116C30.0696 116 29.2201 115.819 28.4435 115.457C27.6728 115.089 27.0714 114.584 26.6393 113.941C26.2131 113.299 26 112.55 26 111.695H28.2158C28.2158 112.469 28.4552 113.068 28.934 113.492C29.4127 113.916 30.0988 114.128 30.9921 114.128C31.7628 114.128 32.3409 113.963 32.7262 113.632C33.1174 113.295 33.313 112.852 33.313 112.303Z" fill="white"/>
<path d="M44.611 112.64H39.6714L38.638 115.813H36.3346L41.1515 102.187H43.1396L47.9654 115.813H45.6532L44.611 112.64ZM40.2933 110.731H43.9892L42.1412 105.079L40.2933 110.731Z" fill="white"/>
<path d="M53.229 112.846L56.4695 102.187H58.9043L54.315 115.813H52.1693L47.5975 102.187H50.0235L53.229 112.846Z" fill="white"/>
<path d="M67.8025 109.73H62.5651V113.922H68.6871V115.813H60.3493V102.187H68.6258V104.096H62.5651V107.858H67.8025V109.73Z" fill="white"/>
<path d="M83.6459 104.096H79.6698V115.813H77.4715V104.096H73.5303V102.187H83.6459V104.096Z" fill="white"/>
<path d="M90.0131 110.563H87.5433V115.813H85.3275V102.187H89.8117C91.283 102.187 92.4187 102.54 93.2186 103.245C94.0185 103.95 94.4184 104.97 94.4184 106.305C94.4184 107.216 94.2112 107.98 93.7966 108.598C93.3879 109.209 92.8157 109.68 92.08 110.011L94.9439 115.691V115.813H92.5705L90.0131 110.563ZM87.5433 108.663H89.8204C90.5678 108.663 91.1516 108.463 91.572 108.064C91.9924 107.659 92.2026 107.107 92.2026 106.408C92.2026 105.678 92.007 105.113 91.6158 104.714C91.2305 104.315 90.6524 104.109 89.8817 104.096H87.5433V108.663Z" fill="white"/>
<path d="M103.974 109.73H98.7362V113.922H104.858V115.813H96.5204V102.187H104.797V104.096H98.7362V107.858H103.974V109.73Z" fill="white"/>
<path d="M114.115 109.73H108.878V113.922H115V115.813H106.662V102.187H114.939V104.096H108.878V107.858H114.115V109.73Z" fill="white"/>
</svg>
