<svg width="1224" height="802" viewBox="0 0 1224 802" fill="none" xmlns="http://www.w3.org/2000/svg">
<path d="M140.751 534.629C139.647 533.533 138.069 532.437 137.438 531.184C132.23 518.813 124.814 515.681 111.244 520.066C113.453 532.75 120.869 538.074 133.177 535.882C135.702 535.412 138.227 534.942 140.751 534.629C139.962 537.291 139.173 539.954 138.384 542.929C143.118 539.484 147.536 535.726 152.27 532.75C157.162 529.775 162.369 527.426 169.312 523.824C165.209 532.437 161.107 538.544 159.686 545.121C158.109 552.638 163.473 558.432 168.838 563.6C181.462 547.94 181.62 545.121 171.048 528.992C168.365 524.764 170.416 523.198 173.73 521.162C183.671 514.898 193.454 508.321 203.395 502.057C206.867 499.864 210.811 498.142 214.756 497.046C229.431 493.131 244.421 492.348 259.096 495.949C270.299 498.612 281.187 502.84 294.126 506.911C275.506 514.115 259.569 520.222 243.632 526.33C241.265 511.766 234.796 503.779 216.965 509.104C219.017 521.632 223.908 525.703 236.216 525.39C238.741 525.39 241.265 525.86 243.79 526.173C236.689 531.654 229.431 537.135 221.383 543.399C225.328 541.833 228.169 540.893 231.167 539.797C229.115 547.001 225.959 553.108 226.117 559.059C226.275 565.949 231.009 571.273 238.11 574.249C247.104 560.625 245.684 549.036 231.009 539.484C243.632 531.028 255.625 525.077 270.457 522.101C266.512 530.401 261.779 536.978 260.358 544.338C258.623 552.951 263.672 559.998 270.615 565.479C283.081 552.638 285.763 538.544 273.613 527.426C270.142 524.137 271.246 521.318 275.822 520.066C282.134 518.5 288.761 517.56 294.915 515.524C303.278 512.862 311.01 513.019 319.531 515.524C328.683 518.186 338.466 519.752 348.091 520.379C368.289 521.788 386.751 514.898 405.055 507.224C422.412 499.864 440.242 492.974 459.493 492.661C491.683 492.191 518.981 504.562 541.861 526.016C548.33 532.124 553.064 541.52 555.116 550.133C557.64 561.094 557.798 572.996 556.693 584.271C554.169 613.085 559.849 641.273 562.374 669.618C564.11 688.566 565.214 708.298 562.058 726.933C554.642 771.564 529.08 805.546 492.945 832.011C484.424 838.275 475.588 844.226 466.752 850.646C478.744 856.754 484.424 858.163 495.943 855.188C504.464 852.995 512.827 849.707 521.032 846.105C535.865 839.684 542.808 841.877 549.908 856.284C554.484 865.523 562.058 868.499 571.368 863.801C575.629 861.765 579.416 858.789 583.203 856.127C595.195 847.358 608.607 844.382 622.651 848.767C637.01 853.308 650.738 859.572 664.308 864.897C661.784 858.163 657.839 850.176 661.468 840.154C678.667 852.056 697.603 851.429 716.538 851.899C716.222 850.646 716.222 850.176 715.907 849.863C712.435 846.575 709.121 843.286 705.65 840.154C661.468 800.848 638.43 752.302 641.428 692.951C642.533 669.774 645.058 646.754 646.478 623.734C647.582 606.665 647.267 589.439 649.16 572.37C652 546.374 662.888 523.824 686.557 510.513C711.488 496.419 739.733 493.757 767.978 493.444C787.545 493.287 805.217 501.587 822.89 508.634C849.873 519.283 877.329 525.547 905.574 515.368C923.247 509.104 937.921 518.969 954.174 521.162C950.229 529.461 945.338 536.352 944.075 543.712C942.655 552.168 949.125 558.745 954.805 565.166C961.906 559.215 967.113 552.168 965.377 543.869C963.799 536.665 958.75 530.088 955.279 523.198C955.594 522.571 956.068 521.945 956.383 521.475C969.164 525.703 982.261 529.305 992.675 539.014C992.044 540.11 991.571 541.363 990.782 542.303C978.947 553.578 978.159 560.468 987.626 573.779C1000.25 566.106 1002.46 557.18 995.358 545.121C994.253 543.086 993.464 540.893 992.675 538.701C995.358 539.484 997.883 540.423 1000.57 541.206C996.62 537.292 991.886 534.473 987.784 531.028C985.259 528.835 983.523 525.703 981.472 523.041C996.305 528.992 1007.35 522.884 1008.3 508.164C993.938 505.658 987.626 508.321 983.524 519.283C983.05 520.692 982.261 521.788 981.472 523.198C980.052 523.824 978.474 525.077 977.527 524.764C963.484 519.752 949.598 514.585 935.712 509.26C934.923 508.947 934.292 508.164 933.03 506.911C955.121 496.732 977.054 490.468 1000.57 494.697C1007.82 495.949 1015.4 498.298 1021.87 501.743C1032.12 507.381 1041.59 514.428 1051.69 520.692C1056.11 523.511 1057.21 526.33 1053.43 529.931C1043.33 539.327 1045.06 552.638 1057.21 562.661C1071.1 550.289 1067.31 537.918 1055.32 525.547C1056.42 524.92 1057.37 524.294 1058.48 523.667C1068.57 530.088 1078.51 536.352 1087.98 542.303C1078.51 526.956 1058.63 522.258 1044.43 507.068C1049.17 507.694 1051.69 508.007 1054.06 508.477C1065.73 511.296 1078.04 512.549 1088.77 507.381C1100.61 501.587 1110.23 502.996 1120.17 510.356C1123.8 513.019 1127.9 514.898 1131.85 517.09C1131.06 518.343 1130.27 519.752 1129.32 520.849C1117.81 532.594 1117.65 540.893 1128.85 553.891C1141.16 546.218 1143.37 535.099 1135.32 523.667C1133.9 521.632 1132.95 519.126 1131.85 516.934C1135.16 516.464 1138.48 516.151 1141.79 515.524C1148.26 514.585 1154.57 513.488 1161.67 512.392C1156.31 511.922 1151.89 511.609 1147.47 511.296C1149.21 509.73 1150.78 507.538 1152.84 506.755C1163.57 502.057 1166.41 495.01 1161.67 483.578C1147.94 487.336 1143.84 493.757 1146.68 506.755C1147 508.321 1147.15 509.887 1147.47 511.453C1145.26 512.236 1143.05 513.802 1141 513.488C1129.48 511.609 1119.54 506.285 1108.65 498.611C1119.7 490.468 1129.32 482.482 1139.74 475.748C1150.78 468.701 1163.41 466.978 1176.5 470.58C1176.5 469.954 1176.5 469.327 1176.5 468.544C1168.93 467.605 1161.36 466.665 1153.78 465.726C1153.47 464.943 1153.15 464.16 1152.84 463.377C1155.83 461.654 1158.52 459.618 1161.67 458.366C1173.66 453.511 1177.77 441.766 1171.14 430.647C1155.04 436.598 1152.84 439.73 1153.15 455.547C1153.31 462.281 1150.31 466.509 1144 469.484C1136.74 472.929 1129.96 477.314 1123.17 481.699C1115.91 486.397 1109.28 492.191 1101.87 496.263C1096.5 499.238 1090.03 500.491 1084.04 502.526C1083.41 501.743 1082.78 500.96 1081.99 500.177C1083.25 497.359 1084.2 494.383 1085.93 491.878C1093.98 480.289 1091.3 469.014 1077.09 461.028C1075.2 468.544 1071.26 475.905 1072.05 482.638C1072.83 489.216 1078.51 495.166 1082.46 502.213C1067 503.779 1053.74 502.213 1040.17 494.54C1046.8 485.614 1052.64 477.471 1058.79 469.484C1065.89 460.401 1075.2 454.294 1086.25 450.849C1092.72 448.813 1096.03 450.692 1097.61 457.269C1100.76 470.11 1107.23 473.712 1120.96 470.893C1120.33 456.173 1111.02 450.849 1097.13 449.753C1100.45 448.03 1103.13 447.56 1105.81 446.777C1112.76 444.428 1119.86 441.923 1126.64 439.26C1129.01 438.321 1130.74 435.502 1133.27 434.562C1146.37 430.178 1150.31 422.348 1146.05 408.724C1130.59 412.482 1127.43 416.71 1126.64 432.213C1126.48 435.345 1124.12 440.67 1122.07 440.983C1110.39 443.175 1098.55 444.272 1086.72 445.681C1090.19 438.008 1095.56 432.84 1098.55 426.576C1102.18 419.059 1097.92 412.325 1093.03 406.218C1079.3 416.867 1077.73 421.878 1083.56 437.381C1085.62 442.549 1084.35 445.524 1078.83 448.343C1069.68 453.041 1060.68 458.679 1052.95 465.569C1046.01 471.676 1040.8 479.82 1035.28 487.493C1032.76 490.938 1030.39 491.565 1026.13 490.312C1017.61 487.65 1008.93 485.77 1000.25 483.891C995.042 482.795 989.835 482.325 983.681 481.386C987.626 476.374 990.782 472.616 993.464 468.544C999.145 460.558 999.618 460.401 1007.51 465.726C1019.34 473.556 1030.7 470.737 1038.28 456.486C1031.18 454.764 1024.39 451.162 1017.92 451.788C1011.77 452.415 1006.25 457.426 1000.41 460.401C999.934 459.775 999.461 459.148 998.987 458.679C1003.41 451.632 1007.82 444.585 1012.08 437.538C1015.87 431.274 1020.45 431.587 1024.71 436.285C1034.49 447.09 1050.27 446.621 1061.95 433.153C1049.95 420.155 1040.33 419.372 1025.81 429.865C1023.92 431.274 1021.39 431.43 1019.03 432.213C1018.55 431.274 1018.08 430.491 1017.61 429.551C1023.76 423.914 1030.07 418.433 1035.91 413.108C1033.39 413.735 1030.39 414.518 1027.55 415.301C1028.81 412.795 1029.76 410.133 1031.49 407.941C1039.54 397.605 1037.8 387.583 1026.44 379.753C1015.08 391.341 1014.92 399.328 1025.65 411.073C1026.6 412.169 1027.07 413.735 1027.71 415.144C1017.45 426.889 1007.19 438.634 997.094 450.379C993.149 454.92 989.835 459.932 985.575 464.16C975.161 474.652 963.642 482.638 948.493 486.084C927.034 490.782 906.205 497.828 884.903 503.153C880.169 504.406 874.804 503.309 869.597 503.309C869.439 502.526 869.281 501.587 869.124 500.804C874.489 497.672 879.854 494.697 884.903 491.251C895.791 483.735 906.994 476.218 917.093 467.918C922.615 463.377 926.087 463.22 930.821 468.231C941.708 479.82 956.068 479.35 967.586 467.605C958.434 454.451 943.286 451.319 931.767 461.498C930.347 462.75 927.507 462.75 925.456 463.377C924.982 462.594 924.509 461.811 923.878 461.184C933.819 449.909 943.76 438.634 954.016 427.829C954.805 426.889 959.697 427.985 960.801 429.395C971.689 443.489 977.054 444.898 993.622 437.381C986.995 419.686 974.056 419.686 958.434 426.419C958.434 425.636 958.592 425.01 958.592 424.227C960.012 422.504 961.432 420.782 962.853 418.903C962.537 418.589 962.064 418.276 961.748 417.963C954.647 423.444 947.547 428.925 940.446 434.406C939.815 434.249 939.026 434.249 938.395 434.093C946.284 421.721 949.125 410.133 934.765 401.363C927.034 410.446 925.771 418.433 930.663 425.48C933.188 429.238 938.395 433.31 937.921 436.442C937.29 440.513 932.083 443.958 928.769 447.717C927.665 448.97 926.718 450.222 925.613 451.162C915.357 459.149 905.1 467.135 894.844 474.965C896.58 470.737 897.526 466.195 900.051 462.437C906.678 452.415 901.787 435.032 888.848 431.587C878.276 448.03 878.907 454.607 892.319 468.701C893.739 470.267 894.055 472.773 895.002 474.808C887.901 478.567 880.958 482.482 873.857 486.24C868.808 489.059 863.127 491.095 859.025 494.697C854.291 498.768 850.346 499.551 844.981 496.419C841.352 494.227 837.407 492.661 833.936 490.312C832.2 489.216 830.464 486.71 830.464 484.831C829.044 455.39 839.143 423.914 871.017 406.844C893.424 394.786 917.724 392.281 942.497 391.498C971.216 390.558 998.672 385.077 1023.45 369.417C1025.97 367.851 1030.86 368.008 1034.02 369.104C1043.8 372.862 1053.11 377.717 1062.89 381.475C1068.73 383.824 1069.52 386.173 1065.73 391.185C1057.84 401.52 1059.11 409.037 1069.99 416.71C1080.41 406.061 1078.36 395.569 1069.36 386.643C1085.14 384.921 1100.45 383.198 1115.75 381.632C1114.81 384.451 1114.33 387.583 1112.91 390.088C1107.08 400.58 1109.28 408.567 1120.01 414.674C1128.38 403.086 1127.9 397.605 1118.28 386.956C1117.02 385.547 1116.54 383.355 1115.75 381.475C1128.85 374.428 1141.79 375.368 1154.89 381.475C1162.15 384.921 1162.93 387.739 1158.99 394.943C1153.15 405.748 1155.36 413.265 1167.19 419.842C1177.61 394.943 1162.15 383.668 1142.89 374.115C1151.42 372.079 1159.78 371.61 1166.41 367.851C1174.14 363.623 1175.56 354.854 1175.72 346.241C1153.62 347.807 1153.78 347.807 1144.47 367.695C1143.21 370.513 1140.37 373.959 1137.69 374.585C1123.96 377.717 1110.07 380.066 1096.03 382.258C1093.35 382.728 1090.19 381.006 1087.35 380.223C1089.09 377.874 1090.35 375.211 1092.56 373.332C1103.76 363.623 1104.08 349.216 1093.35 339.194C1074.89 349.373 1078.51 364.719 1086.09 381.945C1066.36 378.187 1051.06 371.14 1036.07 360.804C1040.01 357.516 1043.17 354.854 1046.33 352.191C1067.31 334.809 1090.82 323.69 1118.59 324.004C1121.28 324.004 1124.12 325.883 1126.8 326.979C1125.38 329.171 1124.12 331.833 1122.22 333.713C1112.91 342.795 1113.54 355.793 1125.54 365.346C1128.85 358.769 1134.22 352.505 1134.69 346.084C1135.16 339.663 1130.74 332.93 1128.06 325.569C1132.01 325.569 1135.64 325.726 1139.27 325.569C1148.73 324.943 1158.2 324.786 1167.35 323.221C1177.29 321.498 1177.45 321.028 1179.34 331.207C1182.03 346.554 1196.54 354.697 1211.06 347.337C1207.27 340.916 1204.91 332.93 1199.54 328.701C1194.02 324.317 1185.5 323.69 1178.4 321.498C1185.03 313.981 1191.02 306.778 1197.33 299.887C1205.22 291.274 1205.22 279.686 1197.02 269.664C1182.34 276.241 1177.61 286.576 1183.13 299.574C1188.5 312.102 1188.02 313.511 1175.24 318.053C1170.51 319.775 1165.62 320.872 1160.72 321.811C1158.83 322.124 1156.62 321.341 1153.78 321.028C1159.46 314.138 1166.56 308.97 1168.61 302.393C1170.67 295.816 1167.83 287.673 1167.19 279.686C1149.52 286.263 1144.47 297.695 1150.47 311.789C1151.57 314.451 1151.73 317.426 1152.36 320.402C1149.21 320.715 1145.73 321.968 1142.74 321.341C1106.13 314.138 1072.99 321.498 1043.17 343.892C1035.28 349.842 1026.92 355.323 1018.55 360.804C1016.34 362.214 1013.82 362.84 1010.35 364.249C1015.24 336.062 1030.86 319.149 1055.63 309.127C1067.78 304.272 1079.78 298.791 1091.14 292.527C1097.92 288.769 1101.08 289.395 1104.71 296.285C1112.44 311.006 1124.75 313.825 1141.32 303.489C1135.16 298.165 1130.27 291.274 1123.49 288.769C1116.86 286.263 1108.65 288.299 1099.34 288.299C1103.92 284.541 1107.39 281.722 1110.7 278.903C1112.12 277.807 1114.49 275.458 1114.33 275.145C1110.39 269.037 1116.39 267.628 1119.23 264.809C1128.22 255.883 1128.22 241.946 1119.07 232.236C1104.08 240.38 1100.76 250.872 1108.97 265.905C1112.28 272.013 1111.81 276.554 1105.5 280.312C1098.87 284.071 1092.72 288.612 1086.09 292.214C1081.51 294.72 1076.31 296.285 1071.41 298.321C1070.15 297.851 1068.89 297.538 1067.63 297.068C1079.93 283.758 1082.3 271.073 1068.73 259.171C1057.53 268.724 1055.79 278.903 1063.68 289.082C1070.94 298.478 1071.1 299.574 1059.26 302.706C1029.6 310.379 1011.61 328.858 1004.35 357.986C1003.88 359.708 1003.56 361.744 1002.46 363.153C999.776 366.129 996.778 370.827 993.464 371.296C976.423 373.802 959.223 375.368 942.024 377.091C941.235 377.247 940.288 376.464 938.552 375.681C945.18 369.574 952.28 364.719 957.172 358.299C966.64 345.927 974.845 332.46 983.681 319.619C989.204 311.476 994.885 303.332 1001.04 295.659C1001.99 294.406 1005.61 295.189 1008.14 295.033C1009.72 296.129 1011.45 296.912 1012.56 298.321C1021.08 308.97 1028.65 310.066 1040.17 302.236C1030.86 287.986 1023.76 286.263 1008.14 295.033C1007.35 288.142 1013.19 287.203 1017.45 285.637C1041.28 277.494 1055.79 261.051 1061.79 236.934C1062.1 235.368 1062.42 233.802 1063.21 232.55C1064.94 229.731 1066.84 227.225 1068.73 224.563C1070.94 226.599 1073.47 228.321 1075.2 230.67C1082.93 241.163 1094.29 242.415 1103.76 233.802C1096.35 219.865 1084.67 218.299 1070.15 224.876C1070.78 221.744 1071.1 220.335 1071.26 218.769C1070.78 218.456 1070.31 218.299 1069.84 217.986C1065.58 225.189 1061.16 232.55 1056.11 240.849C1055.48 231.453 1057.05 222.997 1054.06 216.733C1051.06 210.469 1043.33 206.554 1037.17 201.23C1029.13 219.239 1033.23 229.887 1049.01 236.621C1056.74 240.066 1057.53 242.259 1053.9 249.619C1045.69 265.905 1032.6 276.397 1015.24 281.722C1009.56 283.444 1004.04 286.107 997.409 288.612C1000.57 279.999 1005.14 273.109 1004.83 266.375C1004.51 259.328 999.618 252.438 996.462 245.078C981.63 256.196 980.525 269.664 991.886 281.722C994.885 284.854 997.883 287.829 994.411 292.37C984.944 305.212 975.476 317.896 966.166 330.737C964.588 332.93 963.642 335.748 962.537 338.254C961.275 337.314 960.17 336.375 958.908 335.592C958.908 328.232 960.959 320.089 958.277 313.981C955.436 307.561 948.178 303.176 942.497 297.695C933.188 311.789 936.343 324.787 948.809 331.207C950.703 332.147 952.596 332.93 954.49 333.869C959.223 336.375 960.486 339.35 956.068 343.422C953.069 346.241 950.387 349.529 947.231 352.348C929.085 368.791 907.152 377.874 884.114 384.451C852.871 393.534 831.569 412.639 821.628 443.802C818.63 453.511 814.369 462.75 811.056 472.303C809.478 476.688 807.269 477.627 802.85 476.844C791.805 474.965 780.602 473.399 769.398 471.99C761.351 471.05 753.146 470.58 744.783 469.954C751.568 460.245 757.88 451.788 763.56 442.706C768.452 434.876 771.134 433.779 779.182 438.791C793.067 447.56 804.428 445.524 814.369 432.213C802.535 420.938 789.122 418.433 777.446 431.744C776.026 433.466 772.87 433.466 769.083 434.876C774.763 415.771 786.124 397.605 798.275 386.643C804.428 381.006 810.109 381.006 816.263 386.487C829.202 397.918 837.407 398.231 852.555 387.896C844.192 373.332 832.673 370.2 818.314 378.5C815.79 379.909 812.792 380.536 809.951 381.475C809.636 380.536 809.162 379.596 808.847 378.813C811.056 377.247 813.265 375.368 815.79 374.115C826.362 368.478 837.092 362.997 847.822 357.359C854.291 353.914 858.867 356.263 862.338 361.901C870.544 375.211 876.54 377.404 892.477 373.019C890.11 359.238 880.643 352.818 867.23 355.793C864.705 356.263 861.076 357.516 859.656 356.42C854.764 352.191 850.346 355.01 845.77 356.42C840.09 358.142 834.251 359.865 828.571 361.587C828.255 360.804 827.782 360.021 827.466 359.238C833.778 354.384 841.352 350.469 846.244 344.361C851.924 337.158 850.031 328.232 845.612 320.245C827.94 327.919 824.784 333.243 826.993 350.625C827.94 357.516 826.046 363.153 818.63 366.442C802.851 373.332 788.491 382.258 778.077 396.509C777.288 397.605 775.868 398.231 774.606 399.171C773.974 399.014 773.343 398.701 772.712 398.545C774.132 390.871 776.815 383.041 776.499 375.525C776.026 366.129 768.609 360.961 760.246 357.672C752.672 372.549 752.672 383.511 766.716 393.534C769.872 395.883 772.554 403.399 771.134 406.844C766.4 418.589 759.931 429.708 753.777 440.983C752.515 443.175 749.832 444.428 747.781 446.307C746.834 443.802 745.414 441.453 745.098 438.947C743.047 422.348 732.79 414.205 717.484 417.65C717.484 434.719 722.849 441.609 738.787 445.055C740.68 445.524 742.889 445.994 744.309 447.404C745.256 448.343 745.887 451.475 745.256 451.945C736.735 458.679 728.846 467.448 719.062 471.05C701.547 477.471 682.77 480.446 664.466 484.987C661.941 485.614 659.259 486.397 655.314 487.336C662.099 464.316 670.304 443.958 681.192 424.54C698.549 394.003 723.165 369.417 746.361 343.578C748.096 341.543 751.094 340.29 753.777 339.507C764.033 336.375 774.29 333.243 784.704 330.737C815.001 323.69 844.508 314.608 869.755 295.346C871.333 294.093 873.7 293.937 875.593 293.31C875.593 296.912 875.593 300.514 875.751 304.115C875.909 317.896 886.481 326.822 901.313 325.569C901.313 323.377 901.471 321.028 901.313 318.836C900.682 304.585 895.317 298.634 880.958 295.972C879.065 295.659 877.329 294.406 875.593 293.623C877.171 291.744 878.433 289.552 880.327 288.142C894.844 277.494 910.939 270.133 928.296 265.122C939.973 261.677 940.288 261.677 942.182 273.892C944.391 287.829 958.908 295.816 971.531 290.022C970.742 270.76 958.119 264.496 939.815 263.086C963.168 253.847 978.001 237.404 988.415 216.42C994.411 223.937 998.514 231.453 1004.83 235.995C1011.93 241.319 1020.6 238.657 1030.23 233.802C1024.08 227.538 1019.66 220.178 1013.19 217.203C1006.72 214.384 998.356 215.95 989.677 215.48C996.62 199.351 1005.46 185.413 1017.29 173.512C1025.97 164.899 1026.6 165.055 1031.49 175.861C1036.86 187.606 1048.85 191.051 1060.05 184.161C1054.21 168.97 1049.48 166.308 1032.75 167.718C1030.55 167.874 1028.34 166.152 1025.02 164.742C1020.13 167.718 1014.14 171.319 1008.14 175.078C1007.35 174.765 1006.4 174.451 1005.61 174.138C1017.92 158.791 1017.45 145.167 1002.46 133.266C989.993 145.481 989.046 159.418 1002.14 169.753C1005.61 172.572 1007.51 175.861 1004.04 180.559C996.463 190.894 989.362 201.386 981.946 211.879C980.683 213.601 979.263 215.011 977.843 216.577C976.896 216.577 975.949 216.577 975.003 216.577C982.419 198.568 978.316 185.413 960.328 178.366C951.807 194.183 954.647 204.205 969.953 212.662C971.373 213.445 973.267 214.071 973.74 215.167C974.529 217.516 975.792 220.961 974.687 222.527C965.851 235.525 955.279 246.487 939.657 251.342C937.448 251.968 934.923 252.125 931.925 252.594C935.712 244.295 941.077 237.404 941.235 230.514C941.393 223.623 936.186 216.733 933.03 209.216C917.408 221.275 916.146 232.55 927.349 245.861C932.399 251.811 931.925 253.691 924.351 255.726C916.777 257.919 909.203 259.641 901.629 261.834C897.842 262.93 894.213 264.339 890.899 265.435C892.95 257.292 895.791 250.089 896.264 242.729C896.737 233.959 889.163 229.104 883.956 223.154C871.806 237.561 871.964 247.74 884.43 259.171C889.637 264.026 889.005 267.001 883.167 270.447C875.909 274.675 869.124 279.529 861.865 283.758C859.498 285.167 856.658 285.637 854.133 286.576C854.607 284.541 854.922 282.505 855.553 280.626C860.129 265.435 852.082 252.908 835.987 250.245C829.044 265.435 833.305 276.241 848.453 282.818C850.504 283.758 852.398 285.167 854.291 286.42C852.398 288.299 850.662 291.274 848.453 292.057C832.2 297.851 815.947 303.646 799.537 308.344C790.385 311.006 780.76 311.632 770.661 313.355C770.819 310.379 770.661 308.813 771.134 307.404C776.183 291.274 780.76 274.988 786.44 259.015C793.383 239.597 804.271 222.527 820.366 209.06C823.364 206.554 827.466 205.771 831.095 204.205C831.253 208.277 831.095 212.505 831.411 216.577C832.2 229.418 844.823 237.717 857.605 233.959C856.027 213.288 854.291 211.409 834.567 205.928C833.305 205.615 832.2 204.988 830.938 204.362C832.358 202.169 833.305 199.194 835.356 198.098C844.981 193.087 854.922 188.076 865.021 183.847C877.013 178.836 877.171 179.306 877.329 192.617C877.329 204.832 885.061 213.288 897.053 214.697C900.84 215.167 902.891 214.228 903.049 209.843C903.68 197.002 897.526 188.389 885.061 184.944C882.536 184.317 880.169 183.064 877.329 181.968C878.433 180.402 878.749 179.463 879.38 179.149C890.268 174.608 901.156 170.223 912.043 165.995C913.306 165.525 915.041 166.308 916.619 166.621C916.777 168.657 916.777 170.85 916.935 172.885C917.724 186.196 927.665 192.93 940.762 189.172C939.499 175.078 934.134 169.127 921.669 167.874C919.933 167.718 918.039 167.248 916.304 166.935C916.304 165.995 915.988 164.429 916.619 164.116C926.245 156.286 936.028 148.613 945.653 140.783C949.44 146.264 952.28 153.78 957.803 157.225C963.168 160.671 971.373 160.044 978.474 161.297C978.474 146.264 965.693 136.241 953.858 140.469C950.703 141.566 945.811 141.879 946.6 137.024C947.389 130.76 949.756 124.496 952.28 118.546C957.803 106.018 953.385 93.9594 940.762 87.5389C929.401 101.789 930.19 111.342 943.286 123.243C945.495 125.279 948.651 130.134 947.862 131.23C942.024 140 934.134 146.577 923.72 153.311C926.087 143.601 930.19 136.085 929.085 129.194C927.98 122.304 921.826 116.197 917.724 109.306C904.469 122.93 904.627 134.675 916.935 145.794C918.513 147.203 920.564 148.299 921.353 150.022C922.142 151.431 922.142 154.563 921.195 155.346C911.254 162.55 900.051 166.778 886.639 167.248C899.578 153.467 900.84 140.156 888.374 126.219C874.173 135.458 871.964 148.143 882.063 161.297C884.114 164.116 888.374 167.561 882.063 169.597C870.702 173.199 859.025 176.017 847.506 179.149C848.295 177.27 848.926 175.234 850.031 173.512C858.867 159.731 856.027 148.143 841.352 137.807C829.675 150.805 830.307 162.237 843.088 173.199C844.981 174.765 846.086 177.114 847.664 179.149C846.875 180.246 846.244 181.968 844.981 182.595C826.362 191.677 809.478 202.796 795.434 217.986C794.961 218.456 794.014 218.456 793.067 218.926C792.436 217.986 791.489 217.203 791.489 216.263C791.016 199.664 790.385 182.908 790.227 166.308C790.227 161.923 792.752 160.671 797.17 161.923C813.896 166.621 819.734 163.959 827.94 148.143C821.312 143.915 813.738 142.192 807.111 145.95C801.273 149.239 797.17 155.346 791.332 161.297C790.227 147.047 794.487 136.241 802.85 127.002C804.113 125.592 808.847 125.592 810.74 126.845C822.575 134.832 828.886 134.675 838.67 124.809C829.044 111.812 818.472 116.353 807.269 123.557C813.896 115.1 820.681 107.74 827.94 100.85C829.202 99.7536 832.989 100.38 835.04 101.163C849.084 107.114 859.025 103.512 865.968 89.4181C850.82 79.0825 839.774 85.8163 829.833 101.006C833.147 85.9729 835.829 73.9148 838.512 62.0132C840.09 62.3264 841.51 62.6396 843.088 63.1094C858.236 67.6508 868.019 62.3264 872.437 46.9797C859.183 40.5592 849.399 44.0043 842.93 57.0021C841.983 58.8813 840.09 60.4472 838.67 62.0132C837.092 66.7112 835.672 71.5658 833.62 76.1072C832.673 78.1429 830.307 79.5523 828.571 81.1183C828.255 78.6127 827.782 76.1072 827.624 73.445C826.835 61.2302 815.947 53.5569 803.639 56.5323C803.482 73.7582 811.687 82.9975 828.886 80.8051C831.411 89.1049 821.47 104.138 810.74 108.367C809.162 105.861 806.953 103.512 805.849 100.693C801.273 89.2615 790.227 84.8767 778.55 90.2011C782.337 105.391 789.911 111.812 802.377 110.089C805.217 109.776 807.9 108.836 810.74 108.21C803.324 115.883 795.908 123.557 788.334 131.387C786.598 129.821 784.547 128.411 783.442 126.532C776.026 114.631 765.138 112.438 752.988 120.581C763.402 138.12 771.923 140.783 788.491 131.23C787.229 136.554 785.02 141.722 784.862 147.047C784.073 167.718 783.915 188.389 783.6 209.06C783.6 210.782 783.442 212.348 783.284 214.071C780.602 211.409 779.497 208.903 778.866 206.084C773.974 181.655 764.507 159.574 747.465 140.939C741.469 134.362 735.315 128.098 729.792 121.051C727.268 117.763 726.163 113.378 724.27 109.463C741.469 115.727 752.041 109.619 755.986 91.2973C743.363 86.2861 732.791 90.9841 728.372 103.199C727.583 105.548 725.69 107.427 724.27 109.463C724.112 109.619 723.954 109.933 723.796 110.089C723.638 110.246 723.165 110.246 723.165 110.246C718.905 101.32 714.644 92.3935 710.699 83.3107C710.384 82.3711 711.962 80.6485 712.593 79.3957C731.686 79.2391 740.365 71.2526 738.313 55.4361C723.007 54.3399 714.802 60.2907 713.54 73.445C713.382 75.4808 713.066 77.5165 712.751 79.5523C710.857 77.6731 707.859 75.9506 707.228 73.7582C704.703 64.049 702.968 54.3399 700.916 44.4741C700.758 44.4741 700.601 44.4741 700.443 44.4741C700.443 50.1117 700.443 55.9059 700.443 61.5434C693.184 46.5099 683.401 39.1498 666.517 46.5099C672.04 63.5792 678.352 67.3376 694.762 64.5188C699.338 63.7358 701.074 65.1452 702.179 69.8432C705.492 82.3711 709.595 94.7424 713.382 107.114C714.013 108.993 714.329 111.029 715.118 114.474C694.131 97.4046 689.871 96.6216 677.878 106.331C685.768 118.702 696.34 123.557 709.595 115.727C713.54 113.378 716.064 114.317 718.747 118.076C725.374 127.315 732.633 136.241 739.576 145.324C741.154 147.36 742.574 149.552 743.994 151.588C743.678 152.528 743.363 153.467 743.047 154.407C729.319 142.349 716.853 141.566 705.966 156.442C721.587 167.248 726.637 167.248 740.207 155.816C743.994 152.684 746.676 152.997 749.043 157.069C752.672 163.333 756.933 169.44 759.773 176.174C770.976 202.326 772.554 229.887 767.032 257.292C763.718 273.422 757.091 288.925 751.726 304.585C750.779 307.091 748.412 309.127 746.992 311.162C744.467 302.393 742.1 294.406 739.733 286.42C740.365 285.48 740.838 283.914 741.785 283.601C756.144 277.18 757.564 274.518 755.197 259.641C744.467 259.954 738.787 265.592 739.102 275.771C739.26 279.373 739.418 282.975 739.733 286.576C730.424 280.469 724.743 271.699 720.798 261.52C718.747 256.196 718.589 252.594 725.69 251.498C728.372 251.028 731.844 249.462 732.948 247.427C735 243.198 735.789 238.344 736.735 233.802C736.893 233.333 733.895 231.297 733.579 231.61C729.477 234.429 723.323 236.934 721.903 240.849C717.958 252.751 717.011 265.122 725.216 276.397C726.952 278.903 728.057 281.878 729.319 284.697C726.321 283.601 723.481 282.661 720.64 281.565C710.857 277.337 702.179 281.252 698.549 291.587C711.488 298.478 716.853 297.538 725.69 287.046C726.637 285.95 728.214 285.48 729.477 284.854C730.739 285.637 732.159 286.263 733.106 287.359C745.572 300.827 741.785 323.534 730.739 333.243C719.851 342.639 709.122 352.191 698.392 361.587C695.394 364.249 692.08 366.599 688.608 369.261C685.295 365.502 682.454 362.527 679.614 359.395C662.415 339.507 647.424 318.366 642.375 291.901C641.902 289.708 640.955 286.89 641.902 285.167C646.32 275.614 651.369 266.218 656.103 256.666C657.997 257.762 660.206 258.702 661.784 260.268C670.147 268.411 679.141 268.567 688.293 260.424C681.192 249.776 674.249 248.053 663.204 254.004C660.995 255.257 658.47 255.726 655.945 256.666C666.36 234.585 684.506 219.709 704.388 206.711C699.812 208.59 695.236 210.626 690.818 212.505C690.029 212.035 689.24 211.565 688.293 211.096C701.074 202.483 704.545 192.773 694.604 180.872C682.928 189.955 681.35 196.219 687.662 207.807C690.029 212.035 688.924 214.384 685.295 216.89C667.464 229.104 653.736 245.078 642.848 263.4C641.586 265.435 640.166 267.315 638.746 269.35C637.957 269.037 637.326 268.724 636.537 268.411C633.696 235.525 640.797 203.892 649.791 170.38C664.15 183.534 676.774 183.221 688.451 169.91C675.196 155.503 663.046 160.201 651.369 172.885C650.422 170.223 649.791 169.284 649.949 168.501C651.685 158.791 653.263 149.082 655.472 139.53C655.787 138.434 660.995 136.868 662.415 137.807C674.249 145.167 686.399 141.409 694.762 128.724C688.766 124.34 682.139 119.798 674.723 122.774C668.411 125.279 663.204 130.604 657.05 134.832C656.261 120.895 655.472 107.74 654.999 94.5859C654.999 92.8633 656.892 91.1407 657.997 89.4181C672.356 94.1161 680.877 88.9483 683.875 73.2884C669.831 68.5904 662.415 73.2884 658.154 89.5747C652.947 90.9841 653.894 86.7559 652.947 84.0937C649.318 72.8186 645.689 61.7 642.06 50.2683C643.48 47.1363 643.953 42.2818 646.32 40.8724C659.417 33.6688 661.784 29.284 658.312 14.0939C648.371 15.5033 642.06 20.6711 641.744 28.501C641.428 35.7046 641.902 43.0648 642.06 50.2683C644.742 59.6643 647.898 68.9036 646.162 80.0221C636.063 67.6508 625.491 64.2056 612.868 74.8544C622.651 86.9125 629.12 88.4785 641.902 81.5881C646.478 79.0825 648.845 80.0221 649.476 85.0333C650.107 91.2973 650.896 97.4046 651.054 103.669C652.158 132.013 643.322 158.478 635.117 184.944C634.801 185.727 633.854 186.353 633.065 187.293C632.276 186.196 631.487 185.57 631.645 185.1C632.75 174.451 628.332 165.995 621.546 158.165C620.284 156.756 621.231 153.624 621.073 151.275C635.274 143.758 638.115 134.832 630.541 121.834C615.708 128.098 613.026 136.711 621.389 151.431C619.022 151.431 616.655 151.431 614.288 151.431C616.339 154.72 619.337 158.322 621.389 162.55C623.913 167.561 627.385 173.042 627.385 178.366C627.385 196.219 626.754 214.228 624.86 232.08C621.546 263.713 622.493 294.876 637.484 323.377C647.267 342.012 659.732 359.238 671.409 376.621C674.407 381.162 674.407 383.668 670.778 387.896C645.847 416.554 625.333 447.717 614.761 484.518C614.446 485.614 613.341 486.397 612.237 487.493C604.978 470.424 597.878 454.137 591.092 437.538C584.623 421.878 587.305 405.748 590.146 389.932C591.566 381.789 595.353 380.692 602.453 384.921C615.392 392.437 623.44 391.185 633.381 380.066C625.176 369.104 612.237 367.851 602.927 376.777C601.033 378.657 598.509 379.753 596.3 381.319C595.826 380.692 595.353 380.223 594.879 379.596C598.509 372.393 601.665 365.033 605.767 358.299C606.714 356.889 611.921 355.95 613.341 357.046C623.124 364.719 634.959 359.865 640.482 349.999C628.331 339.194 618.391 346.554 607.976 356.263C608.607 346.397 609.239 339.037 609.712 332.303C607.818 339.35 606.398 347.493 603.242 354.697C600.876 360.021 595.826 364.249 591.881 369.104C590.935 366.129 589.514 363.31 589.041 360.178C587.621 348.12 577.838 341.073 565.53 343.422C566.634 363.466 572.946 369.417 592.039 368.947C587.779 379.126 583.518 389.305 579.258 399.484C579.1 399.171 578.153 398.545 577.68 397.762C569.79 383.198 561.743 368.478 554.011 353.757C552.118 350.156 549.435 346.084 549.435 342.326C549.593 327.292 550.224 312.259 551.644 297.225C552.275 289.865 556.378 287.986 562.216 292.37C573.893 300.827 585.412 297.851 594.722 287.673C582.729 275.928 575.155 275.458 562.216 286.263C561.585 286.733 561.112 287.673 560.481 287.673C558.745 287.986 557.009 288.456 555.431 287.829C554.8 287.673 554.327 284.854 554.8 283.758C560.954 271.386 567.423 259.015 573.735 246.644C575.786 247.583 578.153 248.053 579.731 249.619C589.357 258.702 595.668 259.171 607.345 251.185C600.087 240.223 593.301 238.5 581.783 244.451C579.416 245.704 576.418 245.861 573.735 246.644C576.575 242.259 579.416 237.717 582.256 233.333C583.676 230.514 584.623 227.538 586.516 225.189C596.142 213.601 595.984 205.615 585.254 194.966C573.42 206.241 572.788 212.662 581.467 226.442C582.572 228.322 582.256 231.14 582.572 233.489C576.102 241.006 569.633 248.523 563.005 255.883C561.585 257.449 559.218 258.075 557.325 259.171C557.798 255.883 558.429 252.594 558.587 249.149C559.218 236.778 551.802 229.261 538.863 228.791C534.76 244.451 539.021 252.438 553.853 257.292C555.116 257.762 556.22 258.389 557.325 258.858C557.167 261.207 557.64 263.556 557.009 265.749C552.433 279.216 547.384 292.684 542.808 306.151C541.545 310.066 540.914 314.294 539.81 319.149C538.074 317.74 537.127 317.27 537.127 316.8C532.709 297.852 526.555 279.216 524.188 259.954C519.77 222.997 532.078 190.268 554.8 160.984C565.53 147.203 574.84 132.953 573.262 114.161C572.788 109.463 574.997 107.584 580.205 109.776C594.722 115.883 604.189 112.125 611.448 96.9348C606.241 95.682 601.349 94.1161 596.3 93.4897C585.412 91.9237 581.94 102.103 575.786 108.053C570.106 98.1876 569.948 66.398 574.997 60.2906C595.511 69.0602 604.347 67.6508 611.921 53.7135C607.661 51.8343 603.558 49.4853 599.14 48.2325C588.41 45.1005 582.098 53.4003 575.471 59.9775C574.682 59.1945 574.051 58.5681 573.262 57.7851C575.313 53.0871 577.207 48.2325 579.258 43.6911C566.319 57.6285 570.895 76.4204 567.897 94.2727C562.69 86.9125 559.534 80.4919 554.484 76.2638C548.646 71.4092 540.914 72.0356 533.971 75.794C540.441 93.0199 545.017 95.9952 561.901 93.9595C566.792 93.3331 569.159 95.682 568.844 100.067C568.055 114.317 567.897 128.881 558.429 140.939C551.96 149.239 545.175 157.069 538.547 165.055C517.719 189.955 506.358 218.143 505.884 250.872C505.411 285.324 514.563 317.74 526.24 349.529C527.502 352.818 528.449 356.106 529.711 359.708C527.975 359.865 527.344 360.178 527.028 359.865C524.188 357.829 521.506 355.95 518.823 353.757C496.417 335.905 476.219 316.487 466.12 288.925C456.495 263.086 453.497 236.308 456.337 209.06C458.231 190.424 464.227 173.042 475.115 157.539C478.586 152.528 481.584 151.745 486.16 156.599C496.101 166.935 507.304 166.308 518.508 155.503C507.778 140 494.996 143.445 481.111 153.78C481.584 150.648 481.426 149.709 481.742 149.082C490.105 138.12 498.468 127.158 507.304 116.51C508.567 114.944 512.669 114.317 514.563 115.1C531.131 121.677 535.865 120.581 547.699 106.018C532.709 93.9594 521.19 99.7536 510.302 115.414C510.302 111.499 510.145 110.559 510.302 109.619C514.405 95.9952 518.665 82.3711 522.61 68.747C524.188 63.5792 527.344 63.7358 531.762 64.6754C545.964 67.964 555.431 61.5434 558.745 44.9439C551.329 45.5703 543.597 44.4741 538.074 47.2929C532.709 50.1117 529.395 57.1587 524.504 63.266C523.715 53.5569 523.084 45.1005 522.452 36.8008C520.875 34.2952 518.823 31.9462 517.719 29.1274C513.458 17.8523 501.15 13.1543 490.263 19.1051C496.574 38.0536 505.253 42.7516 522.295 36.6442C524.662 52.1475 520.559 66.398 514.089 81.1183C511.565 64.3622 505.253 53.0871 486.16 56.3757C486.476 70.7828 493.103 80.9617 508.409 80.1787C513.616 79.8655 516.299 82.6843 513.774 88.1653C510.934 94.2726 508.567 100.693 505.411 106.644C504.306 108.68 501.308 109.619 499.257 111.185C498.152 108.053 497.206 104.765 495.943 101.633C491.683 91.1407 480.006 87.0691 469.434 92.5501C473.221 109.933 482.215 115.414 499.415 111.029C499.099 113.378 499.572 116.197 498.468 117.919C495.785 121.991 492.472 125.906 489 129.351C466.278 151.901 450.972 178.21 445.765 209.999C445.449 211.565 444.345 212.975 443.714 214.384C443.083 214.384 442.451 214.228 441.82 214.228C442.767 186.666 446.554 158.791 436.297 132.326C438.507 133.109 440.716 134.049 442.925 134.832C456.495 140 467.225 134.675 471.959 120.425C457.915 113.378 449.868 115.57 441.347 128.411C440.242 130.134 438.033 131.073 436.297 132.326C431.09 126.845 425.883 121.364 420.834 115.727C419.256 113.848 417.994 111.655 416.573 109.776C435.509 112.595 442.136 108.367 446.712 91.1407C436.298 85.6597 424.463 89.4181 420.203 99.7536C418.782 103.042 417.836 106.644 416.731 110.089C406.79 106.801 401.899 98.5008 397.007 90.3577C393.851 85.0333 395.429 82.3711 401.741 81.5881C416.889 79.5523 422.412 72.5054 421.465 56.3757C402.688 54.6531 397.323 66.7112 396.06 82.9975C395.271 82.6843 394.325 82.3711 393.536 82.0579C391.958 76.2638 390.222 70.4696 388.644 64.6754C386.593 62.1698 383.91 59.8209 382.49 57.0021C376.178 44.3175 365.764 40.8724 352.667 47.6061C358.821 63.4226 365.291 66.8678 382.017 63.7358C384.226 63.266 386.593 64.2056 388.802 64.3622C390.695 75.794 392.431 87.2257 394.798 101.476C385.488 84.4069 373.969 80.6485 358.821 89.5747C366.711 102.886 375.863 108.367 385.33 103.355C394.167 98.6574 399.058 100.85 404.266 108.053C406.79 111.655 410.577 114.317 413.733 117.449C415.311 119.172 416.731 121.051 418.151 122.93C411.84 121.521 406.632 117.449 401.267 117.293C396.218 117.293 391.011 121.364 384.857 124.026C396.691 134.049 403.634 135.145 411.366 129.351C419.729 123.087 420.676 123.087 426.199 132.17C429.039 137.024 431.248 142.349 432.984 147.83C434.246 151.588 434.088 155.973 434.404 160.044C427.461 155.503 423.201 149.239 417.362 146.107C410.893 142.818 403.161 144.384 396.849 148.926C406.632 165.055 410.893 166.935 428.25 162.393C433.615 160.984 434.877 163.489 434.72 168.031C434.562 181.812 434.562 195.592 434.246 209.373C434.088 212.818 432.984 216.107 432.037 221.118C416.258 203.735 398.585 192.46 379.65 182.595C378.545 181.968 377.914 178.053 378.861 176.644C380.281 174.295 383.121 172.885 385.173 170.85C394.482 161.61 393.378 146.733 381.07 137.181C377.283 144.071 371.602 150.492 370.656 157.382C369.709 164.272 373.811 171.789 376.021 180.402C363.082 176.331 351.089 172.729 340.202 169.284C343.673 160.671 348.407 153.467 349.038 145.95C349.669 137.807 344.146 131.073 334.837 125.749C332.312 133.579 327.736 140.626 328.209 147.36C328.683 154.407 334.205 160.984 338.15 168.657C327.42 167.561 317.953 164.272 308.959 159.418C300.596 154.877 300.438 152.684 307.854 146.577C320.004 136.398 320.477 122.93 308.959 111.655C292.39 122.304 292.706 136.398 301.858 152.528C298.229 151.588 295.862 150.648 294.126 149.082C290.023 145.481 286.079 141.566 282.134 137.807C274.875 130.604 275.033 129.351 282.923 122.46C294.599 112.438 294.915 99.4404 283.554 88.1653C271.088 96.9348 267.617 106.644 271.877 117.919C274.875 125.749 276.769 134.049 279.136 142.035C276.295 141.722 273.455 141.409 270.615 140.939C257.045 138.434 247.262 145.95 246.473 159.888C263.356 163.646 269.984 160.201 275.98 144.698C276.453 143.601 278.031 142.818 279.136 142.035C280.398 142.349 281.818 142.349 282.765 142.975C290.497 149.396 298.229 155.973 305.961 162.706C307.854 164.429 309.116 166.621 310.694 168.657C291.917 168.031 285.605 173.042 284.343 189.955C296.651 193.4 305.487 187.919 307.538 175.861C308.012 173.355 309.59 171.006 310.536 168.657C311.641 168.187 313.061 167.091 314.008 167.404C324.107 171.163 334.048 175.078 343.989 179.149C345.251 179.619 345.882 181.655 346.987 182.908C345.724 183.691 344.462 185.1 343.042 185.257C325.685 187.919 320.793 198.411 322.844 214.854C341.464 216.42 349.196 203.266 347.776 191.051C347.46 188.232 347.145 185.413 346.671 182.595C348.88 182.438 351.563 181.498 353.456 182.438C365.606 187.762 377.756 193.4 389.749 199.194C391.327 199.977 392.273 202.169 393.536 203.579C391.642 204.832 390.064 206.554 388.013 207.181C373.18 210.782 369.236 215.011 367.026 229.418C366.237 234.742 368.131 236.465 373.338 236.151C384.857 235.212 393.062 226.599 393.851 214.384C394.009 211.252 394.325 208.12 394.64 204.675C418.94 212.505 456.811 284.071 452.866 314.608C436.929 311.319 420.992 308.5 405.37 304.429C395.114 301.61 385.33 296.912 375.547 292.684C373.654 291.901 372.391 289.552 370.656 287.986C372.234 286.576 373.811 284.854 375.705 283.601C377.599 282.348 379.965 281.409 382.017 280.626C391.169 277.024 395.587 260.111 385.962 248.993C380.281 254.317 372.549 258.545 369.709 264.809C366.869 271.073 369.078 279.529 369.078 288.612C359.61 282.661 351.247 277.18 342.884 272.013C333.259 266.062 333.259 265.905 341.306 258.388C352.509 248.053 351.878 233.959 338.308 223.31C334.521 230.201 328.367 236.621 327.736 243.512C326.947 250.559 331.365 258.232 333.574 265.905C323.002 262.93 312.272 259.798 301.542 256.979C291.286 254.16 290.97 253.377 297.755 245.234C307.696 233.333 305.329 219.082 291.444 210.469C288.603 215.794 283.238 221.118 283.554 226.129C284.027 235.055 287.814 243.825 290.339 252.908C290.655 252.908 289.55 253.377 288.761 253.064C270.931 248.679 258.307 237.404 248.997 222.058C248.05 220.492 250.102 216.577 251.838 214.541C253.415 212.662 256.414 212.192 258.623 210.782C269.984 203.579 272.035 189.015 261.779 177.427C256.729 183.064 249.786 187.606 247.262 194.026C244.737 200.447 246.788 208.747 246.788 218.299C244.106 214.541 242.37 212.192 240.634 209.686C234.796 201.073 229.115 192.304 222.804 184.004C216.807 176.174 216.492 175.861 223.908 168.657C234.638 158.165 233.534 143.132 219.648 132.483C216.334 139.686 211.127 146.42 210.654 153.467C210.18 160.357 214.598 167.561 217.281 176.331C210.18 171.789 204.026 167.874 197.399 163.646C197.399 165.838 197.399 166.935 197.399 167.874C195.348 167.874 193.139 168.187 191.245 167.874C176.097 165.369 168.996 169.91 164.262 184.944C178.937 191.051 187.931 187.449 194.243 172.885C195.032 171.006 196.294 169.44 197.399 167.561C198.977 168.187 201.028 168.187 202.291 169.284C216.334 181.185 225.96 196.375 233.849 212.662C234.165 213.445 233.849 214.697 233.691 217.36C215.545 211.409 202.764 216.42 196.768 234.742C212.863 242.415 223.593 238.5 230.851 222.684C231.798 220.648 233.218 218.769 234.48 216.89C242.054 226.755 247.893 236.465 255.94 244.138C263.83 251.655 274.086 256.666 283.396 263.086C276.138 265.435 268.248 266.688 261.779 270.29C254.52 274.518 254.047 283.131 252.153 290.805C253.889 291.431 254.836 291.901 255.782 292.057C270.773 293.623 279.609 286.576 282.765 270.29C283.712 265.749 284.501 261.99 290.655 263.713C310.536 269.194 329.314 277.024 345.724 289.708C346.987 290.648 347.776 292.214 349.196 293.936C346.987 294.876 345.567 295.659 343.989 295.972C326.158 298.321 324.107 306.778 322.055 320.558C321.424 325.57 323.318 327.292 328.209 326.353C342.095 323.69 347.618 316.957 347.933 302.549C347.933 299.887 349.354 297.382 350.143 294.719C352.509 295.659 355.034 296.285 357.085 297.695C379.176 313.511 404.108 323.064 430.459 328.545C457.6 334.182 480.795 343.892 499.572 366.755C527.66 400.894 552.906 435.659 565.846 478.097C566.634 480.759 567.108 483.735 568.055 487.806C563.794 486.397 561.427 485.457 558.903 484.674C545.017 480.759 531.289 475.122 517.245 473.712C503.044 472.146 492.472 466.352 483.162 456.643C481.111 454.451 479.691 451.788 477.955 449.283C480.795 447.873 483.478 445.681 486.476 445.055C501.624 441.453 507.778 432.84 505.884 417.337C488.527 415.771 480.479 422.661 479.217 439.73C479.059 442.079 477.324 444.272 476.377 446.464C474.483 445.055 471.643 444.115 470.539 442.236C464.7 431.744 459.651 420.938 453.655 410.446C449.71 403.399 451.919 398.075 457.284 393.377C470.381 381.945 471.801 375.055 463.753 358.612C448.605 363.31 442.925 375.681 449.552 390.245C451.13 393.69 453.97 397.135 447.974 400.111C436.613 383.824 420.518 373.802 403.003 365.815C397.165 363.153 395.903 357.359 396.849 351.252C399.69 334.965 394.64 326.822 378.23 321.341C370.34 336.062 375.863 349.686 388.486 354.227C391.327 355.323 393.536 358.142 396.06 360.178C395.429 360.961 394.956 361.587 394.325 362.37C387.697 360.335 380.912 358.142 374.285 356.106C372.391 355.48 369.235 354.227 368.289 355.01C363.397 359.238 358.506 356.733 353.456 356.106C340.833 354.54 331.523 362.527 331.839 374.272C348.88 377.56 352.036 375.994 361.504 362.84C363.713 359.708 370.34 356.419 372.865 357.672C386.908 364.093 400.321 371.923 413.733 379.283C414.206 379.44 414.049 380.692 414.522 383.511C410.577 381.945 407.421 381.319 404.897 379.753C391.011 371.296 379.492 374.272 370.813 388.679C384.068 399.014 394.009 398.858 406.317 387.739C412.786 381.945 418.625 381.789 425.094 387.426C438.507 399.014 445.923 414.674 452.866 430.491C453.339 431.587 453.024 433.936 452.235 434.562C451.288 435.189 449.079 435.032 447.974 434.406C445.923 433.153 444.503 431.274 442.609 429.865C431.406 420.155 417.52 422.191 409.157 434.562C420.36 444.741 428.723 450.379 445.134 439.104C451.446 434.719 454.917 436.442 459.02 443.019C463.122 449.596 467.698 456.017 472.274 462.281C474.168 464.943 476.219 467.292 478.113 469.797C477.008 470.737 476.85 471.05 476.693 471.05C457.284 473.399 437.718 475.748 418.309 477.784C416.416 477.94 413.26 475.591 412.313 473.556C408.368 464.16 404.581 454.764 401.583 445.055C391.011 411.699 367.5 392.751 334.048 383.668C309.748 377.091 287.499 366.129 269.826 347.493C261.779 339.037 261.936 337.941 272.666 332.93C286.394 326.509 290.339 312.259 280.556 298.321C274.875 303.959 267.617 308.344 264.777 314.921C261.936 321.185 263.514 329.485 263.199 339.194C259.096 334.026 256.414 330.737 253.889 327.292C246.946 317.426 240.476 307.404 233.218 297.851C226.117 288.769 225.802 289.082 233.376 280.469C243.159 269.507 240.95 255.1 226.748 246.33C223.75 253.534 218.543 260.581 218.385 267.628C218.228 274.518 223.119 281.565 226.433 289.865C218.07 286.576 211.285 283.601 204.184 281.095C190.141 276.397 179.568 267.628 171.994 255.1C164.894 243.355 165.051 241.163 177.675 236.308C190.298 231.297 194.716 214.541 184.776 202.796C179.253 207.807 171.994 212.035 168.996 218.143C165.998 224.406 167.418 232.706 166.787 242.572C162.527 234.585 159.371 228.478 155.426 220.961C154.006 224.407 153.375 225.816 152.901 227.225C137.911 217.829 127.812 220.335 120.08 235.055C131.126 243.512 140.909 241.946 148.641 230.827C149.746 229.418 151.481 228.321 152.901 227.225C154.322 227.225 156.846 226.755 157.162 227.538C159.055 230.984 160.791 234.429 161.738 238.187C167.418 260.581 180.042 276.867 202.448 285.01C205.604 286.107 208.918 287.516 211.6 289.395C213.02 290.491 213.336 293.31 214.125 295.346C199.135 287.516 189.352 290.022 183.829 303.489C193.296 309.44 201.186 309.596 207.182 303.489C209.707 300.983 211.758 297.851 213.967 295.033C218.385 291.431 221.699 294.563 224.066 297.538C229.589 304.742 234.954 312.102 239.53 320.089C251.206 340.29 263.199 360.178 282.923 373.959C283.554 374.428 283.712 375.681 284.501 377.404C267.459 378.5 251.522 376.621 235.427 373.802C226.275 372.236 221.226 368.008 219.017 358.925C212.232 329.641 193.928 311.006 164.42 303.489C163.631 303.332 163 303.019 162.211 302.706C152.586 299.417 152.27 298.165 158.74 290.648C167.734 279.999 166.156 268.724 152.586 258.702C150.219 265.749 146.274 272.169 146.432 278.433C146.59 285.01 150.85 291.274 154.006 299.261C150.377 298.008 148.01 297.695 146.116 296.599C137.438 291.901 128.601 287.203 120.238 281.878C110.139 275.614 110.139 275.145 115.82 264.652C123.078 251.342 117.714 237.561 103.67 233.019C94.8336 246.487 94.6758 259.015 108.088 268.411C111.244 270.603 112.98 273.265 106.826 274.362C112.349 278.903 117.714 283.444 123.236 287.986C123.236 289.082 123.236 290.178 123.079 291.118C105.406 284.854 91.5199 287.359 84.2614 305.055C98.6206 314.294 111.086 311.476 118.976 296.599C122.29 290.335 125.445 288.769 131.915 292.684C138.542 296.755 145.801 299.887 152.901 303.332C164.42 308.97 176.413 313.668 187.3 320.558C203.08 330.424 209.707 346.397 212.389 364.563C203.711 360.178 195.663 354.854 187.616 349.686C176.57 342.639 165.998 334.652 154.322 329.171C130.81 317.896 105.879 316.957 80.4744 322.124C77.7919 322.594 74.9517 321.811 72.1114 321.655C72.427 318.992 71.9536 316.017 72.9003 313.668C79.3699 297.851 75.1094 287.516 58.699 280.782C50.1782 296.755 51.9139 305.055 65.6419 315.704C67.3776 316.957 68.3243 319.149 69.7445 321.028C69.2711 321.811 68.7977 322.594 68.3244 323.377C61.6971 321.655 54.9119 320.402 48.2846 318.209C36.1346 314.138 35.5034 312.572 40.7106 300.827C46.7067 287.359 40.7106 274.831 26.3514 270.29C19.4085 284.071 20.1975 293.936 27.9293 301.923C34.2411 308.187 39.7638 315.234 46.0755 322.281C38.8171 324.473 30.454 324.787 25.0891 329.015C19.5663 333.399 17.0416 341.543 13.0968 348.12C26.667 354.071 40.7106 347.65 43.8664 335.905C47.6535 322.124 47.4957 322.751 61.8548 324.63C72.9003 326.196 84.2614 326.196 97.2005 326.979C87.2595 340.76 85.366 353.914 100.356 364.719C111.244 355.01 111.56 344.518 101.619 334.496C99.7251 332.616 98.6206 329.954 97.2005 327.762C99.8829 326.822 102.723 324.943 105.406 324.786C128.443 324.63 149.272 331.833 167.734 345.301C174.519 350.312 180.989 355.793 188.247 361.587C174.203 371.14 160.791 377.874 145.643 381.162C143.749 381.632 141.698 380.849 139.805 380.692C140.12 378.5 139.805 376.151 140.751 374.115C147.694 358.925 145.17 349.999 130.653 339.663C119.134 352.191 119.923 364.093 132.862 375.055C134.44 376.464 135.386 378.657 136.649 380.536C134.44 381.475 132.23 382.728 130.021 383.198C128.286 383.511 126.392 383.041 124.656 382.728C112.033 380.379 99.4096 378.5 86.9439 375.525C83.9458 374.742 80.001 370.827 79.3699 367.695C75.8984 351.408 65.4841 345.771 49.3892 347.963C47.6535 362.997 57.5944 373.645 72.9003 373.019C75.425 372.862 77.9497 373.489 80.4744 373.645C80.4744 374.428 80.4744 375.211 80.3166 375.994C77.4763 377.091 74.3205 377.874 71.9536 379.596C68.3244 382.102 65.0107 385.234 61.5393 388.053C60.7503 389.619 60.4347 391.498 59.3302 392.751C49.8626 402.93 49.547 409.507 58.3834 420.312C69.2711 412.169 70.6912 405.592 64.0639 394.473C62.9594 392.437 62.3282 390.245 61.3815 388.053C72.2692 377.247 91.2043 373.959 105.09 380.536C106.037 381.006 106.352 382.415 106.984 383.511C106.352 385.077 106.037 386.956 104.932 388.053C95.4647 398.388 95.1492 404.809 104.459 415.301C115.504 406.844 116.767 400.58 109.666 388.992C108.562 387.27 107.93 385.234 106.984 383.355C113.453 384.138 119.765 384.764 126.234 385.704C148.957 388.522 169.154 380.536 188.405 369.887C193.454 367.225 197.083 367.225 201.975 370.2C221.384 382.415 242.686 388.836 265.723 390.558C285.29 391.968 305.172 393.064 324.265 396.979C360.557 404.339 385.015 425.167 392.115 462.907C396.376 485.77 394.009 491.251 375.547 497.985C373.811 498.612 371.287 499.081 369.709 498.298C357.717 492.034 345.724 485.457 333.89 479.037C327.105 475.278 326.947 473.086 333.101 467.605C345.409 456.643 345.724 442.862 333.574 431.43C318.9 441.453 316.69 451.319 325.685 465.726C326.947 467.918 327.263 470.58 328.052 473.086C327.105 473.712 326.158 474.182 325.211 474.808C317.164 467.918 308.801 461.341 301.069 453.981C295.388 448.5 290.655 442.079 285.447 436.128C286.236 434.406 286.71 432.214 287.972 430.804C297.755 420.782 298.229 412.795 289.392 401.833C278.031 408.41 275.822 417.337 282.607 428.299C284.027 430.648 284.658 433.466 285.605 436.128C282.134 433.466 278.662 430.647 275.191 428.142C269.195 423.914 263.041 419.686 257.045 415.457C257.518 415.144 257.991 414.831 258.465 414.518C261.147 418.276 263.988 422.035 266.67 425.793C262.883 424.853 259.096 424.227 255.467 423.131C244.263 419.686 233.691 426.106 231.167 437.851C248.051 445.055 253.415 443.489 263.83 428.455C264.619 427.359 265.723 426.576 266.512 425.793C280.556 435.345 288.919 449.753 299.333 462.594C291.286 460.871 284.185 456.956 276.769 456.017C267.775 454.92 261.305 460.871 256.256 467.918C270.773 479.976 280.871 479.663 294.442 467.292C297.913 464.16 300.596 463.22 305.329 466.665C317.953 476.218 331.207 484.987 344.304 494.07C347.933 496.576 351.72 499.081 355.508 501.587C344.304 505.658 334.048 502.996 324.265 500.334C307.854 495.793 291.759 489.842 275.191 486.084C264.461 483.735 255.467 479.037 247.419 472.303C241.581 467.448 236.532 461.811 231.482 456.017C220.437 443.489 209.391 430.961 198.819 418.12C197.557 416.71 198.03 412.325 199.45 410.603C208.602 398.858 208.444 391.654 197.557 379.44C183.355 390.245 186.353 401.99 197.083 414.205C196.294 414.361 195.663 414.674 194.874 414.831C192.35 414.048 189.825 413.108 187.774 412.482C193.612 417.963 199.924 423.914 206.235 429.865C205.604 430.647 204.973 431.274 204.342 432.057C197.241 428.925 190.456 424.384 183.198 422.818C174.203 420.938 167.261 426.263 161.896 433.31C175.624 446.151 185.565 446.621 199.45 435.972C201.817 434.093 207.813 432.996 208.76 434.093C214.756 441.923 219.963 450.379 225.328 458.522C224.697 458.992 223.908 459.462 223.277 459.932C217.439 456.956 211.758 451.945 205.762 451.319C199.45 450.692 192.823 454.451 185.88 456.33C193.454 470.424 204.5 472.773 216.65 465.413C219.49 463.69 225.328 461.967 226.748 463.377C231.798 468.231 235.585 474.495 239.845 480.446C227.537 482.795 215.861 484.518 204.657 487.493C192.034 490.782 192.192 491.251 184.618 481.229C173.73 466.665 162.369 452.885 143.749 447.247C137.753 445.524 138.858 440.983 140.909 436.442C146.905 422.348 144.223 414.518 130.968 406.531C121.658 417.18 122.605 427.829 133.177 436.911C135.229 438.791 136.807 441.296 138.542 443.489C137.911 444.115 137.438 444.741 136.806 445.368C127.181 444.272 117.714 443.332 108.088 441.766C98.305 440.357 96.8849 438.321 96.8849 428.612C96.7271 415.927 91.2043 409.976 77.9497 408.724C73.3737 420.782 77.7919 430.021 89.7842 433.78C91.8355 434.406 94.9914 434.719 95.4647 435.972C98.305 444.272 106.195 442.706 112.033 444.741C116.767 446.307 121.658 447.09 126.55 448.187C106.984 454.764 103.197 458.366 103.354 470.737C117.398 472.303 124.499 468.388 126.392 457.113C127.654 449.283 131.284 448.656 137.911 450.536C160.949 456.956 170.89 476.218 183.198 493.6C174.677 499.864 161.107 503.153 148.168 502.057C146.274 501.9 144.538 500.647 142.803 500.021C143.592 498.298 143.907 495.949 145.17 494.697C156.688 484.518 154.953 473.086 144.538 461.498C131.757 471.363 130.337 480.289 139.173 492.974C140.436 494.697 140.278 497.515 140.909 499.708C138.542 499.864 135.544 501.117 133.651 500.177C123.867 495.166 114.4 489.842 104.932 484.361C96.8849 479.506 89.6264 473.399 81.1056 469.484C73.5315 466.039 70.2179 461.811 71.1646 453.511C72.427 440.357 64.8529 432.057 51.4405 430.647C47.4957 446.307 51.9139 455.86 65.7997 459.305C67.851 459.775 69.2711 462.594 71.0068 464.316C70.6912 464.943 70.2179 465.726 69.9023 466.352C66.273 466.352 62.486 465.569 59.0146 466.509C53.0184 468.231 47.3379 470.893 41.6573 473.242C38.3437 470.893 34.2411 469.014 31.7164 465.882C20.6709 452.885 16.5683 451.632 0 458.052C4.26041 471.207 13.728 477.314 25.2469 472.616C31.4008 470.11 36.1346 471.99 41.4995 473.242C49.7048 471.676 58.0678 468.231 66.1152 469.014C86.3127 471.207 99.4096 485.77 116.136 499.394C104.932 504.249 95.6225 508.947 85.9972 512.236C79.3699 514.585 76.214 511.609 77.9497 504.562C80.4744 493.914 74.6361 485.301 62.486 482.795C57.4366 492.348 60.1191 500.647 69.7445 505.345C72.5848 506.755 75.1095 508.477 77.7919 510.043C77.3186 510.983 77.003 511.766 76.5296 512.705C73.5315 512.392 70.3757 512.079 67.3776 511.766C72.2692 513.802 77.4763 514.271 82.5257 515.054C85.366 515.524 88.3641 516.307 91.2043 517.09C90.0998 519.596 89.3108 522.258 87.8907 524.607C80.6322 536.195 84.1036 548.253 97.2005 553.578C99.2518 548.567 101.776 543.712 103.039 538.544C105.563 528.522 96.4115 523.198 91.5199 515.837C99.094 512.079 106.195 509.26 112.506 505.345C117.714 502.057 121.816 501.587 127.497 504.249C138.227 509.26 149.746 511.766 161.896 509.26C166.945 508.321 172.152 508.007 178.937 507.224C176.886 509.573 176.413 510.67 175.624 511.139C164.578 518.969 153.375 526.799 142.171 534.473C142.96 535.725 141.698 534.786 140.751 534.629ZM1100.61 171.946C1099.19 171.319 1097.92 170.693 1096.5 170.223C1091.61 174.138 1085.77 177.427 1081.99 182.281C1074.57 191.677 1081.99 201.543 1082.78 211.252C1088.46 205.771 1096.03 201.386 1098.87 194.809C1102.03 188.232 1100.29 179.619 1100.61 171.946ZM127.023 171.319C121.816 187.293 123.394 195.749 132.546 202.639C136.491 205.771 140.278 209.06 142.803 211.096C143.118 209.06 143.434 205.458 144.538 202.013C149.43 186.979 143.276 175.704 127.023 171.319ZM574.051 0C564.741 16.4429 569.633 28.1878 584.623 35.8612C585.885 30.2236 588.725 23.3333 588.568 16.5995C588.094 8.45635 581.467 3.75838 574.051 0ZM1224 459.305C1205.38 448.187 1196.07 461.184 1187.39 471.99C1189.44 472.146 1192.76 471.833 1195.6 472.773C1209.8 477.314 1218.16 473.556 1224 459.305ZM734.211 18.3221C719.536 14.4071 710.542 19.1051 706.597 31.4764C704.703 37.4272 706.912 38.9932 712.277 39.1498C724.112 39.7762 731.686 32.8858 734.211 18.3221ZM22.7222 531.028C29.5073 529.931 36.4502 530.714 40.395 527.582C45.76 523.198 48.9158 516.151 52.7028 510.513C36.608 507.851 24.4579 510.67 22.7222 531.028ZM1197.49 530.088C1197.96 529.618 1202.07 527.739 1202.07 525.703C1202.22 516.934 1191.34 508.477 1182.66 509.573C1177.14 510.356 1173.98 512.236 1176.82 518.656C1180.13 526.33 1185.18 529.931 1197.49 530.088ZM580.52 314.764C581.309 319.775 581.467 324.16 582.887 328.232C585.412 334.652 590.303 339.037 597.562 339.037C599.298 339.037 602.453 336.218 602.769 334.496C604.505 322.594 597.089 315.86 580.52 314.764ZM620.915 170.223C608.292 160.201 595.668 162.55 591.25 175.548C606.398 183.691 614.446 182.438 620.915 170.223ZM1114.02 519.439C1100.29 515.368 1088.46 520.849 1088.14 533.69C1101.39 540.267 1112.76 534.003 1114.02 519.439ZM735.946 178.053C732.317 179.149 729.319 179.776 726.479 180.872C719.536 183.064 716.696 188.076 716.38 195.122C716.222 199.351 717.958 200.603 722.218 199.977C733.106 197.941 738.313 190.268 735.946 178.053ZM156.057 418.12C165.525 410.133 167.103 401.52 161.107 393.377C157.793 388.679 155.11 389.462 151.955 393.377C146.274 400.424 147.221 407.001 156.057 418.12ZM654.525 203.266C647.267 216.89 649.634 225.503 662.099 230.357C670.147 219.082 667.78 209.999 654.525 203.266ZM213.02 543.399C213.652 530.401 204.815 524.137 190.929 527.739C191.718 541.363 198.819 546.374 213.02 543.399ZM1034.81 527.739C1023.29 525.233 1015.71 528.522 1012.24 536.822C1010.35 541.52 1011.29 544.182 1016.98 544.495C1027.23 545.121 1032.44 540.423 1034.81 527.739ZM579.573 137.807C588.252 147.673 590.619 147.83 607.345 140.626C599.298 133.736 590.303 127.315 579.573 137.807ZM714.329 257.605C711.804 244.608 704.703 240.536 693.5 245.234C696.34 257.605 703.125 261.834 714.329 257.605ZM713.698 224.876C706.123 214.854 699.181 214.071 690.66 221.744C696.34 231.297 701.863 232.08 713.698 224.876Z" fill="#F5F7F7"/>
</svg>
